<mxfile host="app.diagrams.net" modified="2024-05-08T14:57:39.090Z" agent="Mozilla/5.0 (X11; Ubuntu; Linux x86_64; rv:125.0) Gecko/20100101 Firefox/125.0" etag="G5PdRHtQ-hAzpGxxpq9G" version="24.3.1" type="google">
  <diagram name="Pagina-1" id="8lFkNmtKCD5oF6RoMYMe">
    <mxGraphModel grid="1" page="0" gridSize="10" guides="1" tooltips="1" connect="1" arrows="1" fold="1" pageScale="1" pageWidth="827" pageHeight="1169" math="0" shadow="0">
      <root>
        <mxCell id="0" />
        <mxCell id="1" parent="0" />
        <mxCell id="bSpO7BN7ynkhuzYYFRoZ-52" value="" style="rounded=0;whiteSpace=wrap;html=1;fillColor=#f8cecc;strokeColor=#b85450;strokeWidth=4;" vertex="1" parent="1">
          <mxGeometry x="350" y="-2061" width="690" height="710" as="geometry" />
        </mxCell>
        <mxCell id="bSpO7BN7ynkhuzYYFRoZ-57" value="" style="group;fillColor=#dae8fc;strokeColor=#6c8ebf;strokeWidth=4;" vertex="1" connectable="0" parent="1">
          <mxGeometry x="-440" y="-217" width="520" height="340" as="geometry" />
        </mxCell>
        <mxCell id="bSpO7BN7ynkhuzYYFRoZ-58" value="" style="rounded=0;whiteSpace=wrap;html=1;fillColor=#dae8fc;strokeColor=#6c8ebf;" vertex="1" parent="bSpO7BN7ynkhuzYYFRoZ-57">
          <mxGeometry y="1.2142857142857142" width="520" height="340" as="geometry" />
        </mxCell>
        <mxCell id="bSpO7BN7ynkhuzYYFRoZ-59" value="&lt;font style=&quot;font-size: 46px;&quot;&gt;&lt;b style=&quot;font-size: 46px;&quot;&gt;5G Network Regional/Edge Cloud&lt;/b&gt;&lt;font style=&quot;font-size: 46px;&quot;&gt;&lt;b style=&quot;font-size: 46px;&quot;&gt;&lt;u style=&quot;font-size: 46px;&quot;&gt;&lt;br style=&quot;font-size: 46px;&quot;&gt;&lt;/u&gt;&lt;/b&gt;&lt;/font&gt;&lt;/font&gt;" style="text;html=1;align=center;verticalAlign=top;whiteSpace=wrap;rounded=0;spacingTop=5;strokeColor=none;fontSize=46;" vertex="1" parent="bSpO7BN7ynkhuzYYFRoZ-57">
          <mxGeometry width="520" height="85" as="geometry" />
        </mxCell>
        <mxCell id="bSpO7BN7ynkhuzYYFRoZ-5" value="&lt;font style=&quot;font-size: 43px;&quot;&gt;UPF&lt;/font&gt;" style="rounded=0;whiteSpace=wrap;html=1;verticalAlign=middle;spacingTop=3;fontSize=43;strokeWidth=2;" vertex="1" parent="bSpO7BN7ynkhuzYYFRoZ-57">
          <mxGeometry x="200" y="207.14285714285714" width="120" height="97.14285714285712" as="geometry" />
        </mxCell>
        <mxCell id="Zt0NYIdcGdnUJ9LrQltJ-85" value="&lt;font style=&quot;font-size: 43px;&quot;&gt;near-RT RIC&lt;/font&gt;" style="rounded=0;whiteSpace=wrap;html=1;verticalAlign=middle;spacingTop=3;fillColor=#f8cecc;strokeColor=#b85450;fontSize=43;strokeWidth=2;" vertex="1" parent="bSpO7BN7ynkhuzYYFRoZ-57">
          <mxGeometry x="345" y="122.14178807947019" width="150" height="85" as="geometry" />
        </mxCell>
        <mxCell id="CqHk4jJskdGlvBJO3M9F-53" style="edgeStyle=orthogonalEdgeStyle;rounded=0;orthogonalLoop=1;jettySize=auto;html=1;exitX=0;exitY=0.5;exitDx=0;exitDy=0;endArrow=none;endFill=0;strokeWidth=3;strokeColor=#3333FF;" edge="1" parent="bSpO7BN7ynkhuzYYFRoZ-57" source="bSpO7BN7ynkhuzYYFRoZ-5">
          <mxGeometry relative="1" as="geometry">
            <mxPoint x="220" y="304.2857142857143" as="targetPoint" />
            <Array as="points">
              <mxPoint x="160" y="255.71428571428567" />
              <mxPoint x="160" y="328.57142857142856" />
              <mxPoint x="220" y="328.57142857142856" />
              <mxPoint x="220" y="304.2857142857143" />
            </Array>
          </mxGeometry>
        </mxCell>
        <mxCell id="CqHk4jJskdGlvBJO3M9F-57" value="&lt;font color=&quot;#3333ff&quot; style=&quot;font-size: 35px;&quot;&gt;N9&lt;/font&gt;" style="edgeLabel;html=1;align=center;verticalAlign=middle;resizable=0;points=[];labelBackgroundColor=none;fontSize=35;" vertex="1" connectable="0" parent="bSpO7BN7ynkhuzYYFRoZ-57">
          <mxGeometry x="132" y="292.1428247619192" as="geometry">
            <mxPoint x="-5" y="6" as="offset" />
          </mxGeometry>
        </mxCell>
        <mxCell id="bSpO7BN7ynkhuzYYFRoZ-1" value="" style="rounded=0;whiteSpace=wrap;html=1;fillColor=#d5e8d4;strokeColor=#82b366;strokeWidth=4;" vertex="1" parent="1">
          <mxGeometry x="-414" y="486" width="2434" height="410" as="geometry" />
        </mxCell>
        <mxCell id="bSpO7BN7ynkhuzYYFRoZ-3" value="" style="rounded=0;whiteSpace=wrap;html=1;fillColor=#d5e8d4;strokeColor=#82b366;strokeWidth=4;" vertex="1" parent="1">
          <mxGeometry x="-430" y="496" width="2440" height="410" as="geometry" />
        </mxCell>
        <mxCell id="bSpO7BN7ynkhuzYYFRoZ-4" value="" style="rounded=0;whiteSpace=wrap;html=1;" vertex="1" parent="1">
          <mxGeometry x="-410" y="759" width="120" height="60" as="geometry" />
        </mxCell>
        <mxCell id="CqHk4jJskdGlvBJO3M9F-51" style="edgeStyle=orthogonalEdgeStyle;rounded=0;orthogonalLoop=1;jettySize=auto;html=1;exitX=0.5;exitY=1;exitDx=0;exitDy=0;entryX=0.5;entryY=0;entryDx=0;entryDy=0;strokeWidth=3;" edge="1" parent="1" source="bSpO7BN7ynkhuzYYFRoZ-10" target="bSpO7BN7ynkhuzYYFRoZ-20">
          <mxGeometry relative="1" as="geometry" />
        </mxCell>
        <mxCell id="bSpO7BN7ynkhuzYYFRoZ-10" value="" style="rounded=0;whiteSpace=wrap;html=1;container=0;fillColor=#dae8fc;strokeColor=#6c8ebf;strokeWidth=4;" vertex="1" parent="1">
          <mxGeometry x="894" y="-947" width="520" height="220" as="geometry" />
        </mxCell>
        <mxCell id="bSpO7BN7ynkhuzYYFRoZ-11" value="&lt;font style=&quot;font-size: 46px;&quot;&gt;&lt;b&gt;Network Slice (NS)&lt;br&gt;&lt;/b&gt;&lt;/font&gt;" style="text;html=1;align=center;verticalAlign=top;whiteSpace=wrap;rounded=0;spacingTop=0;container=0;" vertex="1" parent="1">
          <mxGeometry x="894" y="-947" width="520" height="70" as="geometry" />
        </mxCell>
        <mxCell id="bSpO7BN7ynkhuzYYFRoZ-12" value="&lt;font style=&quot;font-size: 43px;&quot;&gt;NS&lt;sub&gt;1&lt;/sub&gt;&lt;/font&gt;" style="rounded=0;whiteSpace=wrap;html=1;verticalAlign=middle;spacingTop=3;container=0;fontSize=43;strokeWidth=2;" vertex="1" parent="1">
          <mxGeometry x="906" y="-823" width="120" height="80" as="geometry" />
        </mxCell>
        <mxCell id="bSpO7BN7ynkhuzYYFRoZ-13" value="&lt;font style=&quot;font-size: 43px;&quot;&gt;NS&lt;sub&gt;2&lt;/sub&gt;&lt;/font&gt;" style="rounded=0;whiteSpace=wrap;html=1;verticalAlign=middle;spacingTop=3;container=0;fontSize=43;strokeWidth=2;" vertex="1" parent="1">
          <mxGeometry x="1047" y="-823" width="120" height="80" as="geometry" />
        </mxCell>
        <mxCell id="bSpO7BN7ynkhuzYYFRoZ-14" value="&lt;font style=&quot;font-size: 43px;&quot;&gt;NS&lt;sub&gt;3&lt;/sub&gt;&lt;/font&gt;" style="rounded=0;whiteSpace=wrap;html=1;verticalAlign=middle;spacingTop=3;container=0;fontSize=43;strokeWidth=2;" vertex="1" parent="1">
          <mxGeometry x="1188" y="-823" width="120" height="80" as="geometry" />
        </mxCell>
        <mxCell id="bSpO7BN7ynkhuzYYFRoZ-15" value="&lt;font style=&quot;font-size: 43px;&quot;&gt;...&lt;/font&gt;" style="rounded=0;whiteSpace=wrap;html=1;verticalAlign=middle;spacingTop=3;container=0;fontSize=43;strokeWidth=2;" vertex="1" parent="1">
          <mxGeometry x="1329" y="-823" width="70" height="80" as="geometry" />
        </mxCell>
        <mxCell id="CqHk4jJskdGlvBJO3M9F-30" style="edgeStyle=orthogonalEdgeStyle;rounded=0;orthogonalLoop=1;jettySize=auto;html=1;strokeWidth=3;exitX=0.5;exitY=1;exitDx=0;exitDy=0;entryX=0.5;entryY=0;entryDx=0;entryDy=0;" edge="1" parent="1" source="bSpO7BN7ynkhuzYYFRoZ-19" target="bSpO7BN7ynkhuzYYFRoZ-26">
          <mxGeometry relative="1" as="geometry">
            <mxPoint x="1134" y="-425" as="sourcePoint" />
            <mxPoint x="1194" y="-395" as="targetPoint" />
          </mxGeometry>
        </mxCell>
        <mxCell id="bSpO7BN7ynkhuzYYFRoZ-19" value="" style="rounded=0;whiteSpace=wrap;html=1;container=0;fillColor=#dae8fc;strokeColor=#6c8ebf;strokeWidth=4;" vertex="1" parent="1">
          <mxGeometry x="894" y="-643" width="520" height="220" as="geometry" />
        </mxCell>
        <mxCell id="bSpO7BN7ynkhuzYYFRoZ-20" value="&lt;font style=&quot;font-size: 41px;&quot;&gt;&lt;b style=&quot;font-size: 46px;&quot;&gt;&lt;font style=&quot;font-size: 46px;&quot;&gt;Network Slice Subnetwork (NSS)&lt;br&gt;&lt;/font&gt;&lt;/b&gt;&lt;/font&gt;" style="text;html=1;align=center;verticalAlign=top;whiteSpace=wrap;rounded=0;spacingTop=0;container=0;" vertex="1" parent="1">
          <mxGeometry x="894" y="-643" width="520" height="80" as="geometry" />
        </mxCell>
        <mxCell id="bSpO7BN7ynkhuzYYFRoZ-21" value="&lt;font style=&quot;font-size: 43px;&quot;&gt;NSS&lt;sub&gt;A&lt;br style=&quot;font-size: 43px;&quot;&gt;&lt;/sub&gt;&lt;/font&gt;" style="rounded=0;whiteSpace=wrap;html=1;verticalAlign=middle;spacingTop=3;container=0;fontSize=43;strokeWidth=2;" vertex="1" parent="1">
          <mxGeometry x="906" y="-517" width="120" height="80" as="geometry" />
        </mxCell>
        <mxCell id="bSpO7BN7ynkhuzYYFRoZ-22" value="&lt;font style=&quot;font-size: 43px;&quot;&gt;NSS&lt;sub&gt;B&lt;/sub&gt;&lt;/font&gt;" style="rounded=0;whiteSpace=wrap;html=1;verticalAlign=middle;spacingTop=3;container=0;fontSize=43;strokeWidth=2;" vertex="1" parent="1">
          <mxGeometry x="1047" y="-517" width="120" height="80" as="geometry" />
        </mxCell>
        <mxCell id="bSpO7BN7ynkhuzYYFRoZ-23" value="&lt;font style=&quot;font-size: 43px;&quot;&gt;NSS&lt;sub&gt;C&lt;/sub&gt;&lt;/font&gt;" style="rounded=0;whiteSpace=wrap;html=1;verticalAlign=middle;spacingTop=3;container=0;fontSize=43;strokeWidth=2;" vertex="1" parent="1">
          <mxGeometry x="1188" y="-517" width="120" height="80" as="geometry" />
        </mxCell>
        <mxCell id="bSpO7BN7ynkhuzYYFRoZ-24" value="&lt;font style=&quot;font-size: 43px;&quot;&gt;...&lt;/font&gt;" style="rounded=0;whiteSpace=wrap;html=1;verticalAlign=middle;spacingTop=3;container=0;fontSize=43;strokeWidth=2;" vertex="1" parent="1">
          <mxGeometry x="1329" y="-517" width="70" height="80" as="geometry" />
        </mxCell>
        <mxCell id="bSpO7BN7ynkhuzYYFRoZ-25" value="" style="rounded=0;whiteSpace=wrap;html=1;container=0;fillColor=#dae8fc;strokeColor=#6c8ebf;strokeWidth=4;" vertex="1" parent="1">
          <mxGeometry x="894" y="-351" width="520" height="690" as="geometry" />
        </mxCell>
        <mxCell id="bSpO7BN7ynkhuzYYFRoZ-26" value="&lt;font style=&quot;font-size: 41px;&quot;&gt;&lt;b style=&quot;font-size: 46px;&quot;&gt;&lt;font style=&quot;font-size: 46px;&quot;&gt;x Network Functions&lt;br&gt;&lt;/font&gt;&lt;/b&gt;&lt;/font&gt;" style="text;html=1;align=center;verticalAlign=top;whiteSpace=wrap;rounded=0;spacingTop=5;container=0;" vertex="1" parent="1">
          <mxGeometry x="894" y="-351" width="520" height="70" as="geometry" />
        </mxCell>
        <mxCell id="CqHk4jJskdGlvBJO3M9F-37" style="edgeStyle=orthogonalEdgeStyle;rounded=0;orthogonalLoop=1;jettySize=auto;html=1;exitX=1;exitY=0.5;exitDx=0;exitDy=0;strokeColor=#3333FF;strokeWidth=3;endArrow=none;endFill=0;dashed=1;" edge="1" parent="1" source="bSpO7BN7ynkhuzYYFRoZ-27">
          <mxGeometry relative="1" as="geometry">
            <mxPoint x="1154" y="-229" as="targetPoint" />
          </mxGeometry>
        </mxCell>
        <mxCell id="bSpO7BN7ynkhuzYYFRoZ-27" value="&lt;font style=&quot;font-size: 43px;&quot;&gt;AMF&lt;br style=&quot;font-size: 43px;&quot;&gt;&lt;/font&gt;" style="rounded=0;whiteSpace=wrap;html=1;verticalAlign=middle;spacingTop=3;container=0;fontSize=43;strokeWidth=2;" vertex="1" parent="1">
          <mxGeometry x="918" y="-269" width="164" height="80" as="geometry" />
        </mxCell>
        <mxCell id="CqHk4jJskdGlvBJO3M9F-39" style="edgeStyle=orthogonalEdgeStyle;rounded=0;orthogonalLoop=1;jettySize=auto;html=1;exitX=1;exitY=0.5;exitDx=0;exitDy=0;strokeColor=#3333FF;strokeWidth=3;endArrow=none;endFill=0;dashed=1;" edge="1" parent="1" source="bSpO7BN7ynkhuzYYFRoZ-28">
          <mxGeometry relative="1" as="geometry">
            <mxPoint x="1154" y="-99.17647058823513" as="targetPoint" />
          </mxGeometry>
        </mxCell>
        <mxCell id="bSpO7BN7ynkhuzYYFRoZ-28" value="&lt;font style=&quot;font-size: 43px;&quot;&gt;SMF&lt;/font&gt;" style="rounded=0;whiteSpace=wrap;html=1;verticalAlign=middle;spacingTop=3;container=0;fontSize=43;strokeWidth=2;" vertex="1" parent="1">
          <mxGeometry x="918" y="-139" width="164" height="80" as="geometry" />
        </mxCell>
        <mxCell id="CqHk4jJskdGlvBJO3M9F-40" style="edgeStyle=orthogonalEdgeStyle;rounded=0;orthogonalLoop=1;jettySize=auto;html=1;exitX=1;exitY=0.5;exitDx=0;exitDy=0;strokeColor=#3333FF;strokeWidth=3;endArrow=none;endFill=0;dashed=1;" edge="1" parent="1" source="bSpO7BN7ynkhuzYYFRoZ-29">
          <mxGeometry relative="1" as="geometry">
            <mxPoint x="1154" y="31.411764705882433" as="targetPoint" />
          </mxGeometry>
        </mxCell>
        <mxCell id="bSpO7BN7ynkhuzYYFRoZ-29" value="&lt;font style=&quot;font-size: 43px;&quot;&gt;PCF&lt;/font&gt;" style="rounded=0;whiteSpace=wrap;html=1;verticalAlign=middle;spacingTop=3;container=0;fontSize=43;strokeWidth=2;" vertex="1" parent="1">
          <mxGeometry x="918" y="-9" width="164" height="80" as="geometry" />
        </mxCell>
        <mxCell id="CqHk4jJskdGlvBJO3M9F-41" style="edgeStyle=orthogonalEdgeStyle;rounded=0;orthogonalLoop=1;jettySize=auto;html=1;exitX=0;exitY=0.5;exitDx=0;exitDy=0;strokeColor=#3333FF;strokeWidth=3;endArrow=none;endFill=0;dashed=1;" edge="1" parent="1" source="bSpO7BN7ynkhuzYYFRoZ-33">
          <mxGeometry relative="1" as="geometry">
            <mxPoint x="1154" y="-252" as="targetPoint" />
            <Array as="points">
              <mxPoint x="1184" y="-252" />
              <mxPoint x="1184" y="-252" />
            </Array>
          </mxGeometry>
        </mxCell>
        <mxCell id="bSpO7BN7ynkhuzYYFRoZ-33" value="&lt;font style=&quot;font-size: 43px;&quot;&gt;NSSF&lt;/font&gt;" style="rounded=0;whiteSpace=wrap;html=1;verticalAlign=middle;spacingTop=3;container=0;fontSize=43;strokeWidth=2;" vertex="1" parent="1">
          <mxGeometry x="1217" y="-292" width="164" height="81" as="geometry" />
        </mxCell>
        <mxCell id="CqHk4jJskdGlvBJO3M9F-42" style="edgeStyle=orthogonalEdgeStyle;rounded=0;orthogonalLoop=1;jettySize=auto;html=1;exitX=0;exitY=0.5;exitDx=0;exitDy=0;strokeColor=#3333FF;strokeWidth=3;endArrow=none;endFill=0;dashed=1;" edge="1" parent="1" source="bSpO7BN7ynkhuzYYFRoZ-35">
          <mxGeometry relative="1" as="geometry">
            <mxPoint x="1154" y="-161.52941176470586" as="targetPoint" />
          </mxGeometry>
        </mxCell>
        <mxCell id="bSpO7BN7ynkhuzYYFRoZ-35" value="&lt;font style=&quot;font-size: 43px;&quot;&gt;AUSF&lt;/font&gt;" style="rounded=0;whiteSpace=wrap;html=1;verticalAlign=middle;spacingTop=3;container=0;fontSize=43;strokeWidth=2;" vertex="1" parent="1">
          <mxGeometry x="1217" y="-202" width="164" height="80" as="geometry" />
        </mxCell>
        <mxCell id="CqHk4jJskdGlvBJO3M9F-43" style="edgeStyle=orthogonalEdgeStyle;rounded=0;orthogonalLoop=1;jettySize=auto;html=1;exitX=0;exitY=0.5;exitDx=0;exitDy=0;strokeColor=#3333FF;strokeWidth=3;endArrow=none;endFill=0;dashed=1;" edge="1" parent="1" source="bSpO7BN7ynkhuzYYFRoZ-36">
          <mxGeometry relative="1" as="geometry">
            <mxPoint x="1154" y="-72.11764705882342" as="targetPoint" />
          </mxGeometry>
        </mxCell>
        <mxCell id="bSpO7BN7ynkhuzYYFRoZ-36" value="&lt;font style=&quot;font-size: 43px;&quot;&gt;UDM&lt;/font&gt;" style="rounded=0;whiteSpace=wrap;html=1;verticalAlign=middle;spacingTop=3;container=0;fontSize=43;strokeWidth=2;" vertex="1" parent="1">
          <mxGeometry x="1217" y="-112" width="164" height="80" as="geometry" />
        </mxCell>
        <mxCell id="CqHk4jJskdGlvBJO3M9F-44" style="edgeStyle=orthogonalEdgeStyle;rounded=0;orthogonalLoop=1;jettySize=auto;html=1;exitX=0;exitY=0.5;exitDx=0;exitDy=0;strokeColor=#3333FF;strokeWidth=3;endArrow=none;endFill=0;dashed=1;" edge="1" parent="1" source="bSpO7BN7ynkhuzYYFRoZ-37">
          <mxGeometry relative="1" as="geometry">
            <mxPoint x="1154" y="18" as="targetPoint" />
            <Array as="points">
              <mxPoint x="1177" y="18" />
            </Array>
          </mxGeometry>
        </mxCell>
        <mxCell id="bSpO7BN7ynkhuzYYFRoZ-37" value="&lt;font style=&quot;font-size: 43px;&quot;&gt;NWDAF&lt;/font&gt;" style="rounded=0;whiteSpace=wrap;html=1;verticalAlign=middle;spacingTop=3;container=0;fontSize=43;strokeWidth=2;" vertex="1" parent="1">
          <mxGeometry x="1217" y="-22" width="164" height="80" as="geometry" />
        </mxCell>
        <mxCell id="CqHk4jJskdGlvBJO3M9F-45" style="edgeStyle=orthogonalEdgeStyle;rounded=0;orthogonalLoop=1;jettySize=auto;html=1;exitX=0;exitY=0.5;exitDx=0;exitDy=0;strokeColor=#3333FF;strokeWidth=3;endArrow=none;endFill=0;dashed=1;" edge="1" parent="1" source="bSpO7BN7ynkhuzYYFRoZ-38">
          <mxGeometry relative="1" as="geometry">
            <mxPoint x="1154" y="107.88235294117658" as="targetPoint" />
          </mxGeometry>
        </mxCell>
        <mxCell id="bSpO7BN7ynkhuzYYFRoZ-38" value="&lt;font style=&quot;font-size: 43px;&quot;&gt;NSACF&lt;/font&gt;" style="rounded=0;whiteSpace=wrap;html=1;verticalAlign=middle;spacingTop=3;container=0;fontSize=43;strokeWidth=2;" vertex="1" parent="1">
          <mxGeometry x="1217" y="68" width="164" height="80" as="geometry" />
        </mxCell>
        <mxCell id="CqHk4jJskdGlvBJO3M9F-46" style="edgeStyle=orthogonalEdgeStyle;rounded=0;orthogonalLoop=1;jettySize=auto;html=1;exitX=0;exitY=0.5;exitDx=0;exitDy=0;strokeColor=#3333FF;strokeWidth=3;endArrow=none;endFill=0;dashed=1;" edge="1" parent="1" source="bSpO7BN7ynkhuzYYFRoZ-39">
          <mxGeometry relative="1" as="geometry">
            <mxPoint x="1154" y="198.47058823529414" as="targetPoint" />
            <Array as="points">
              <mxPoint x="1174" y="198" />
            </Array>
          </mxGeometry>
        </mxCell>
        <mxCell id="CqHk4jJskdGlvBJO3M9F-48" style="edgeStyle=orthogonalEdgeStyle;rounded=0;orthogonalLoop=1;jettySize=auto;html=1;exitX=1;exitY=0.5;exitDx=0;exitDy=0;endArrow=none;endFill=0;strokeWidth=3;strokeColor=#3333FF;dashed=1;dashPattern=8 8;" edge="1" parent="1" source="bSpO7BN7ynkhuzYYFRoZ-39" target="bSpO7BN7ynkhuzYYFRoZ-45">
          <mxGeometry relative="1" as="geometry" />
        </mxCell>
        <mxCell id="bSpO7BN7ynkhuzYYFRoZ-39" value="&lt;font style=&quot;font-size: 43px;&quot;&gt;NEF&lt;/font&gt;" style="rounded=0;whiteSpace=wrap;html=1;verticalAlign=middle;spacingTop=3;container=0;fontSize=43;strokeWidth=2;" vertex="1" parent="1">
          <mxGeometry x="1217" y="158" width="164" height="80" as="geometry" />
        </mxCell>
        <mxCell id="CqHk4jJskdGlvBJO3M9F-47" style="edgeStyle=orthogonalEdgeStyle;rounded=0;orthogonalLoop=1;jettySize=auto;html=1;exitX=0;exitY=0.5;exitDx=0;exitDy=0;strokeColor=#3333FF;strokeWidth=3;endArrow=none;endFill=0;dashed=1;" edge="1" parent="1" source="bSpO7BN7ynkhuzYYFRoZ-40">
          <mxGeometry relative="1" as="geometry">
            <mxPoint x="1154" y="289.0588235294117" as="targetPoint" />
          </mxGeometry>
        </mxCell>
        <mxCell id="bSpO7BN7ynkhuzYYFRoZ-40" value="&lt;font style=&quot;font-size: 43px;&quot;&gt;...&lt;/font&gt;" style="rounded=0;whiteSpace=wrap;html=1;verticalAlign=middle;spacingTop=3;container=0;fontSize=43;strokeWidth=2;" vertex="1" parent="1">
          <mxGeometry x="1217" y="249" width="164" height="80" as="geometry" />
        </mxCell>
        <mxCell id="bSpO7BN7ynkhuzYYFRoZ-42" value="" style="group;fontSize=43;strokeWidth=2;" vertex="1" connectable="0" parent="1">
          <mxGeometry x="896" y="119" width="186" height="185" as="geometry" />
        </mxCell>
        <mxCell id="CqHk4jJskdGlvBJO3M9F-49" style="edgeStyle=orthogonalEdgeStyle;rounded=0;orthogonalLoop=1;jettySize=auto;html=1;strokeColor=#3333FF;endArrow=none;endFill=0;dashed=1;strokeWidth=3;exitX=1;exitY=0.5;exitDx=0;exitDy=0;" edge="1" parent="bSpO7BN7ynkhuzYYFRoZ-42" source="bSpO7BN7ynkhuzYYFRoZ-31">
          <mxGeometry relative="1" as="geometry">
            <mxPoint x="258" y="92" as="targetPoint" />
            <mxPoint x="188" y="92" as="sourcePoint" />
          </mxGeometry>
        </mxCell>
        <mxCell id="bSpO7BN7ynkhuzYYFRoZ-31" value="" style="rounded=0;whiteSpace=wrap;html=1;verticalAlign=middle;spacingTop=3;container=0;aspect=fixed;" vertex="1" parent="bSpO7BN7ynkhuzYYFRoZ-42">
          <mxGeometry width="185" height="185" as="geometry" />
        </mxCell>
        <mxCell id="bSpO7BN7ynkhuzYYFRoZ-32" value="&lt;font style=&quot;font-size: 43px;&quot;&gt;AF&lt;br style=&quot;font-size: 43px;&quot;&gt;&lt;/font&gt;" style="text;html=1;align=center;verticalAlign=top;whiteSpace=wrap;rounded=0;spacingTop=5;container=0;aspect=fixed;fontSize=43;" vertex="1" parent="bSpO7BN7ynkhuzYYFRoZ-42">
          <mxGeometry x="1" width="185" height="43.6" as="geometry" />
        </mxCell>
        <mxCell id="bSpO7BN7ynkhuzYYFRoZ-44" value="" style="group;strokeWidth=3;" vertex="1" connectable="0" parent="1">
          <mxGeometry x="1480" y="58" width="520" height="280" as="geometry" />
        </mxCell>
        <mxCell id="bSpO7BN7ynkhuzYYFRoZ-45" value="" style="rounded=0;whiteSpace=wrap;html=1;fillColor=#dae8fc;strokeColor=#6c8ebf;strokeWidth=4;" vertex="1" parent="bSpO7BN7ynkhuzYYFRoZ-44">
          <mxGeometry x="120" width="400" height="280" as="geometry" />
        </mxCell>
        <mxCell id="bSpO7BN7ynkhuzYYFRoZ-46" value="&lt;font style=&quot;font-size: 46px;&quot;&gt;&lt;b&gt;External Functions&lt;br&gt;&lt;/b&gt;&lt;/font&gt;" style="text;html=1;align=center;verticalAlign=top;whiteSpace=wrap;rounded=0;spacingTop=5;" vertex="1" parent="bSpO7BN7ynkhuzYYFRoZ-44">
          <mxGeometry x="120" width="400" height="70" as="geometry" />
        </mxCell>
        <mxCell id="I8OBwHhBF3oGMgnZNRx6-13" value="&lt;font style=&quot;font-size: 43px;&quot;&gt;XF&lt;sub&gt;A&lt;/sub&gt;&lt;/font&gt;" style="rounded=0;whiteSpace=wrap;html=1;verticalAlign=middle;spacingTop=3;container=0;fontSize=43;strokeWidth=2;" vertex="1" parent="bSpO7BN7ynkhuzYYFRoZ-44">
          <mxGeometry x="140" y="175" width="120" height="80" as="geometry" />
        </mxCell>
        <mxCell id="I8OBwHhBF3oGMgnZNRx6-14" value="&lt;font style=&quot;font-size: 43px;&quot;&gt;XF&lt;sub&gt;B&lt;/sub&gt;&lt;/font&gt;" style="rounded=0;whiteSpace=wrap;html=1;verticalAlign=middle;spacingTop=3;container=0;fontSize=43;strokeWidth=2;" vertex="1" parent="bSpO7BN7ynkhuzYYFRoZ-44">
          <mxGeometry x="285" y="175" width="120" height="80" as="geometry" />
        </mxCell>
        <mxCell id="I8OBwHhBF3oGMgnZNRx6-15" value="&lt;font style=&quot;font-size: 43px;&quot;&gt;...&lt;/font&gt;" style="rounded=0;whiteSpace=wrap;html=1;verticalAlign=middle;spacingTop=3;container=0;fontSize=43;strokeWidth=2;" vertex="1" parent="bSpO7BN7ynkhuzYYFRoZ-44">
          <mxGeometry x="430" y="175" width="70" height="80" as="geometry" />
        </mxCell>
        <mxCell id="bSpO7BN7ynkhuzYYFRoZ-2" value="" style="rounded=0;whiteSpace=wrap;html=1;fillColor=#d5e8d4;strokeColor=#82b366;strokeWidth=4;" vertex="1" parent="1">
          <mxGeometry x="-442" y="506" width="2442" height="410" as="geometry" />
        </mxCell>
        <mxCell id="bSpO7BN7ynkhuzYYFRoZ-48" value="" style="group;fillColor=#f8cecc;strokeColor=#b85450;strokeWidth=4;" connectable="0" vertex="1" parent="1">
          <mxGeometry x="-450" y="-1898" width="630" height="580" as="geometry" />
        </mxCell>
        <mxCell id="bSpO7BN7ynkhuzYYFRoZ-49" value="" style="rounded=0;whiteSpace=wrap;html=1;fillColor=#f8cecc;strokeColor=#b85450;" vertex="1" parent="bSpO7BN7ynkhuzYYFRoZ-48">
          <mxGeometry width="630" height="580" as="geometry" />
        </mxCell>
        <mxCell id="bSpO7BN7ynkhuzYYFRoZ-50" value="&lt;font style=&quot;font-size: 46px;&quot;&gt;&lt;b&gt;OSS/BSS&lt;br&gt;&lt;/b&gt;&lt;/font&gt;" style="text;html=1;align=center;verticalAlign=top;whiteSpace=wrap;rounded=0;spacingTop=5;fontSize=47;" vertex="1" parent="bSpO7BN7ynkhuzYYFRoZ-48">
          <mxGeometry width="630" height="145" as="geometry" />
        </mxCell>
        <mxCell id="CqHk4jJskdGlvBJO3M9F-74" value="&lt;font style=&quot;font-size: 43px;&quot;&gt;Service Delivery&lt;br style=&quot;font-size: 43px;&quot;&gt;&lt;/font&gt;" style="rounded=0;whiteSpace=wrap;html=1;verticalAlign=middle;spacingTop=3;container=0;fontSize=43;strokeWidth=2;" vertex="1" parent="bSpO7BN7ynkhuzYYFRoZ-48">
          <mxGeometry x="40" y="123" width="255" height="110" as="geometry" />
        </mxCell>
        <mxCell id="CqHk4jJskdGlvBJO3M9F-75" value="&lt;font style=&quot;font-size: 43px;&quot;&gt;Network Management&lt;br style=&quot;font-size: 43px;&quot;&gt;&lt;/font&gt;" style="rounded=0;whiteSpace=wrap;html=1;verticalAlign=middle;spacingTop=3;container=0;fontSize=43;strokeWidth=2;" vertex="1" parent="bSpO7BN7ynkhuzYYFRoZ-48">
          <mxGeometry x="335" y="123" width="255" height="110" as="geometry" />
        </mxCell>
        <mxCell id="CqHk4jJskdGlvBJO3M9F-76" value="&lt;font style=&quot;font-size: 43px;&quot;&gt;Service&amp;nbsp; Fullfillment&lt;br style=&quot;font-size: 43px;&quot;&gt;&lt;/font&gt;" style="rounded=0;whiteSpace=wrap;html=1;verticalAlign=middle;spacingTop=3;container=0;fontSize=43;strokeWidth=2;" vertex="1" parent="bSpO7BN7ynkhuzYYFRoZ-48">
          <mxGeometry x="40" y="278" width="255" height="110" as="geometry" />
        </mxCell>
        <mxCell id="CqHk4jJskdGlvBJO3M9F-86" value="&lt;font style=&quot;font-size: 43px;&quot;&gt;Service&amp;nbsp; Assurance&lt;br style=&quot;font-size: 43px;&quot;&gt;&lt;/font&gt;" style="rounded=0;whiteSpace=wrap;html=1;verticalAlign=middle;spacingTop=3;container=0;fontSize=43;strokeWidth=2;" vertex="1" parent="bSpO7BN7ynkhuzYYFRoZ-48">
          <mxGeometry x="335" y="278" width="255" height="110" as="geometry" />
        </mxCell>
        <mxCell id="CqHk4jJskdGlvBJO3M9F-88" value="&lt;font style=&quot;font-size: 43px;&quot;&gt;...&lt;/font&gt;" style="rounded=0;whiteSpace=wrap;html=1;verticalAlign=middle;spacingTop=3;container=0;fontSize=43;strokeWidth=2;" vertex="1" parent="bSpO7BN7ynkhuzYYFRoZ-48">
          <mxGeometry x="335" y="433" width="255" height="110" as="geometry" />
        </mxCell>
        <mxCell id="CqHk4jJskdGlvBJO3M9F-87" value="&lt;font style=&quot;font-size: 43px;&quot;&gt;Billing&lt;br style=&quot;font-size: 43px;&quot;&gt;&lt;/font&gt;" style="rounded=0;whiteSpace=wrap;html=1;verticalAlign=middle;spacingTop=3;container=0;fontSize=43;aspect=fixed;strokeWidth=2;" vertex="1" parent="bSpO7BN7ynkhuzYYFRoZ-48">
          <mxGeometry x="40" y="433" width="255" height="110" as="geometry" />
        </mxCell>
        <mxCell id="bSpO7BN7ynkhuzYYFRoZ-61" value="" style="group;fillColor=#dae8fc;strokeColor=#6c8ebf;strokeWidth=4;" vertex="1" connectable="0" parent="1">
          <mxGeometry x="-440" y="-859" width="520" height="180" as="geometry" />
        </mxCell>
        <mxCell id="n17JWOJfK9OWtjPt9God-1" value="" style="rounded=0;whiteSpace=wrap;html=1;fillColor=#dae8fc;strokeColor=#6c8ebf;" vertex="1" parent="bSpO7BN7ynkhuzYYFRoZ-61">
          <mxGeometry width="520" height="180" as="geometry" />
        </mxCell>
        <mxCell id="n17JWOJfK9OWtjPt9God-2" value="&lt;font style=&quot;font-size: 46px;&quot;&gt;&lt;b style=&quot;font-size: 46px;&quot;&gt;&lt;font style=&quot;font-size: 46px;&quot;&gt;User&amp;nbsp; Equipment&lt;/font&gt;&lt;/b&gt;&lt;/font&gt;" style="text;html=1;align=center;verticalAlign=top;whiteSpace=wrap;rounded=0;spacingTop=5;fontSize=46;" vertex="1" parent="bSpO7BN7ynkhuzYYFRoZ-61">
          <mxGeometry width="520" height="70" as="geometry" />
        </mxCell>
        <mxCell id="CqHk4jJskdGlvBJO3M9F-71" value="&lt;font style=&quot;font-size: 27px;&quot;&gt;App&lt;/font&gt;" style="rounded=0;whiteSpace=wrap;html=1;verticalAlign=middle;spacingTop=3;strokeWidth=2;" vertex="1" parent="bSpO7BN7ynkhuzYYFRoZ-61">
          <mxGeometry x="205" y="80" width="100" height="60" as="geometry" />
        </mxCell>
        <mxCell id="CqHk4jJskdGlvBJO3M9F-72" value="&lt;font style=&quot;font-size: 27px;&quot;&gt;App&lt;/font&gt;" style="rounded=0;whiteSpace=wrap;html=1;verticalAlign=middle;spacingTop=3;strokeWidth=2;" vertex="1" parent="bSpO7BN7ynkhuzYYFRoZ-61">
          <mxGeometry x="215" y="90" width="100" height="60" as="geometry" />
        </mxCell>
        <mxCell id="bSpO7BN7ynkhuzYYFRoZ-62" value="" style="group;fillColor=#dae8fc;strokeColor=#6c8ebf;strokeWidth=4;" connectable="0" vertex="1" parent="1">
          <mxGeometry x="-440" y="-547" width="520" height="270" as="geometry" />
        </mxCell>
        <mxCell id="bSpO7BN7ynkhuzYYFRoZ-63" value="" style="rounded=0;whiteSpace=wrap;html=1;fillColor=#dae8fc;strokeColor=#6c8ebf;strokeWidth=3;" vertex="1" parent="bSpO7BN7ynkhuzYYFRoZ-62">
          <mxGeometry y="-60" width="520" height="330" as="geometry" />
        </mxCell>
        <mxCell id="bSpO7BN7ynkhuzYYFRoZ-64" value="&lt;font style=&quot;font-size: 46px;&quot;&gt;&lt;b style=&quot;font-size: 46px;&quot;&gt;Radio Access Network (RAN)&lt;br style=&quot;font-size: 46px;&quot;&gt;&lt;/b&gt;&lt;/font&gt;" style="text;html=1;align=center;verticalAlign=top;whiteSpace=wrap;rounded=0;spacingTop=5;fontSize=46;" vertex="1" parent="bSpO7BN7ynkhuzYYFRoZ-62">
          <mxGeometry y="-60" width="520" height="110" as="geometry" />
        </mxCell>
        <mxCell id="Zt0NYIdcGdnUJ9LrQltJ-9" value="&lt;font style=&quot;font-size: 43px;&quot;&gt;GNodeB&lt;/font&gt;" style="rounded=0;whiteSpace=wrap;html=1;verticalAlign=middle;spacingTop=10;fontSize=43;strokeWidth=2;" vertex="1" parent="bSpO7BN7ynkhuzYYFRoZ-62">
          <mxGeometry x="30" y="107.33" width="170" height="80" as="geometry" />
        </mxCell>
        <mxCell id="Zt0NYIdcGdnUJ9LrQltJ-80" style="edgeStyle=orthogonalEdgeStyle;rounded=0;orthogonalLoop=1;jettySize=auto;html=1;exitX=0.25;exitY=1;exitDx=0;exitDy=0;entryX=0.5;entryY=0;entryDx=0;entryDy=0;endArrow=none;endFill=0;strokeWidth=2;" edge="1" parent="bSpO7BN7ynkhuzYYFRoZ-62" source="Zt0NYIdcGdnUJ9LrQltJ-72" target="Zt0NYIdcGdnUJ9LrQltJ-73">
          <mxGeometry relative="1" as="geometry">
            <Array as="points">
              <mxPoint x="305" y="107" />
            </Array>
          </mxGeometry>
        </mxCell>
        <mxCell id="Zt0NYIdcGdnUJ9LrQltJ-81" style="edgeStyle=orthogonalEdgeStyle;rounded=0;orthogonalLoop=1;jettySize=auto;html=1;exitX=0.75;exitY=1;exitDx=0;exitDy=0;entryX=0.5;entryY=0;entryDx=0;entryDy=0;endArrow=none;endFill=0;strokeWidth=2;" edge="1" parent="bSpO7BN7ynkhuzYYFRoZ-62" target="Zt0NYIdcGdnUJ9LrQltJ-74">
          <mxGeometry relative="1" as="geometry">
            <Array as="points">
              <mxPoint x="449" y="107" />
              <mxPoint x="440" y="107" />
            </Array>
            <mxPoint x="448.75" y="112.62999999999992" as="sourcePoint" />
            <mxPoint x="455" y="147.62999999999994" as="targetPoint" />
          </mxGeometry>
        </mxCell>
        <mxCell id="Zt0NYIdcGdnUJ9LrQltJ-72" value="&lt;font style=&quot;font-size: 43px;&quot;&gt;CU&lt;/font&gt;" style="rounded=0;whiteSpace=wrap;html=1;verticalAlign=middle;spacingTop=11;fontSize=43;strokeWidth=2;" vertex="1" parent="bSpO7BN7ynkhuzYYFRoZ-62">
          <mxGeometry x="250" y="67.33" width="245" height="45" as="geometry" />
        </mxCell>
        <mxCell id="Zt0NYIdcGdnUJ9LrQltJ-82" style="edgeStyle=orthogonalEdgeStyle;rounded=0;orthogonalLoop=1;jettySize=auto;html=1;exitX=0.5;exitY=1;exitDx=0;exitDy=0;entryX=0.5;entryY=0;entryDx=0;entryDy=0;endArrow=none;endFill=0;strokeWidth=2;" edge="1" parent="bSpO7BN7ynkhuzYYFRoZ-62" source="Zt0NYIdcGdnUJ9LrQltJ-73" target="Zt0NYIdcGdnUJ9LrQltJ-79">
          <mxGeometry relative="1" as="geometry" />
        </mxCell>
        <mxCell id="Zt0NYIdcGdnUJ9LrQltJ-73" value="&lt;font style=&quot;font-size: 43px;&quot;&gt;DU&lt;/font&gt;" style="rounded=0;whiteSpace=wrap;html=1;verticalAlign=middle;spacingTop=11;fontSize=43;strokeWidth=2;" vertex="1" parent="bSpO7BN7ynkhuzYYFRoZ-62">
          <mxGeometry x="250" y="147.33" width="110" height="45" as="geometry" />
        </mxCell>
        <mxCell id="Zt0NYIdcGdnUJ9LrQltJ-83" style="rounded=0;orthogonalLoop=1;jettySize=auto;html=1;exitX=0.138;exitY=0.969;exitDx=0;exitDy=0;entryX=0.5;entryY=0;entryDx=0;entryDy=0;endArrow=none;endFill=0;strokeWidth=2;exitPerimeter=0;" edge="1" parent="bSpO7BN7ynkhuzYYFRoZ-62" source="Zt0NYIdcGdnUJ9LrQltJ-74">
          <mxGeometry relative="1" as="geometry">
            <mxPoint x="407.88" y="194.94000000000005" as="sourcePoint" />
            <mxPoint x="400" y="204" as="targetPoint" />
          </mxGeometry>
        </mxCell>
        <mxCell id="Zt0NYIdcGdnUJ9LrQltJ-84" style="edgeStyle=orthogonalEdgeStyle;rounded=0;orthogonalLoop=1;jettySize=auto;html=1;exitX=0.864;exitY=0.948;exitDx=0;exitDy=0;entryX=0.5;entryY=0;entryDx=0;entryDy=0;endArrow=none;endFill=0;strokeWidth=2;exitPerimeter=0;" edge="1" parent="bSpO7BN7ynkhuzYYFRoZ-62" source="Zt0NYIdcGdnUJ9LrQltJ-74" target="Zt0NYIdcGdnUJ9LrQltJ-78">
          <mxGeometry relative="1" as="geometry" />
        </mxCell>
        <mxCell id="Zt0NYIdcGdnUJ9LrQltJ-74" value="&lt;font style=&quot;font-size: 43px;&quot;&gt;DU&lt;/font&gt;" style="rounded=0;whiteSpace=wrap;html=1;verticalAlign=middle;spacingTop=11;fontSize=43;strokeWidth=2;" vertex="1" parent="bSpO7BN7ynkhuzYYFRoZ-62">
          <mxGeometry x="385" y="147.33" width="110" height="45" as="geometry" />
        </mxCell>
        <mxCell id="Zt0NYIdcGdnUJ9LrQltJ-77" value="&lt;font style=&quot;font-size: 43px;&quot;&gt;RU&lt;/font&gt;" style="rounded=0;whiteSpace=wrap;html=1;verticalAlign=middle;spacingTop=8;fontSize=43;strokeWidth=2;" vertex="1" parent="bSpO7BN7ynkhuzYYFRoZ-62">
          <mxGeometry x="365" y="204" width="70" height="45" as="geometry" />
        </mxCell>
        <mxCell id="Zt0NYIdcGdnUJ9LrQltJ-78" value="&lt;font style=&quot;font-size: 43px;&quot;&gt;RU&lt;/font&gt;" style="rounded=0;whiteSpace=wrap;html=1;verticalAlign=middle;spacingTop=8;fontSize=43;strokeWidth=2;" vertex="1" parent="bSpO7BN7ynkhuzYYFRoZ-62">
          <mxGeometry x="445" y="204" width="70" height="45" as="geometry" />
        </mxCell>
        <mxCell id="Zt0NYIdcGdnUJ9LrQltJ-79" value="&lt;font style=&quot;font-size: 43px;&quot;&gt;RU&lt;/font&gt;" style="rounded=0;whiteSpace=wrap;html=1;verticalAlign=middle;spacingTop=8;fontSize=43;strokeWidth=2;" vertex="1" parent="bSpO7BN7ynkhuzYYFRoZ-62">
          <mxGeometry x="270" y="204" width="70" height="45" as="geometry" />
        </mxCell>
        <mxCell id="bSpO7BN7ynkhuzYYFRoZ-65" value="&lt;font style=&quot;font-size: 43px;&quot;&gt;Virtualization Layer&lt;br style=&quot;font-size: 43px;&quot;&gt;&lt;/font&gt;" style="rounded=0;whiteSpace=wrap;html=1;verticalAlign=middle;spacingTop=3;fontSize=43;strokeWidth=2;" vertex="1" parent="1">
          <mxGeometry x="-400" y="751" width="1150" height="50" as="geometry" />
        </mxCell>
        <mxCell id="bSpO7BN7ynkhuzYYFRoZ-66" value="&lt;font style=&quot;font-size: 43px;&quot;&gt;CIS Cluster&lt;br style=&quot;font-size: 43px;&quot;&gt;&lt;/font&gt;" style="rounded=0;whiteSpace=wrap;html=1;verticalAlign=middle;spacingTop=3;fontSize=43;strokeWidth=2;" vertex="1" parent="1">
          <mxGeometry x="255" y="684" width="1095" height="50" as="geometry" />
        </mxCell>
        <mxCell id="bSpO7BN7ynkhuzYYFRoZ-67" value="&lt;font style=&quot;font-size: 43px;&quot;&gt;Physical Resource&lt;br style=&quot;font-size: 43px;&quot;&gt;&lt;/font&gt;" style="rounded=0;whiteSpace=wrap;html=1;verticalAlign=middle;spacingTop=3;fontSize=43;strokeWidth=2;" vertex="1" parent="1">
          <mxGeometry x="-400" y="818" width="500" height="80" as="geometry" />
        </mxCell>
        <mxCell id="bSpO7BN7ynkhuzYYFRoZ-68" value="&lt;font style=&quot;font-size: 43px;&quot;&gt;Physical Resource&lt;br style=&quot;font-size: 43px;&quot;&gt;&lt;/font&gt;" style="rounded=0;whiteSpace=wrap;html=1;verticalAlign=middle;spacingTop=3;fontSize=43;strokeWidth=2;" vertex="1" parent="1">
          <mxGeometry x="250" y="818" width="500" height="80" as="geometry" />
        </mxCell>
        <mxCell id="bSpO7BN7ynkhuzYYFRoZ-69" value="&lt;font style=&quot;font-size: 43px;&quot;&gt;Physical Resource&lt;br style=&quot;font-size: 43px;&quot;&gt;&lt;/font&gt;" style="rounded=0;whiteSpace=wrap;html=1;verticalAlign=middle;spacingTop=3;fontSize=43;strokeWidth=2;" vertex="1" parent="1">
          <mxGeometry x="850" y="818" width="500" height="80" as="geometry" />
        </mxCell>
        <mxCell id="bSpO7BN7ynkhuzYYFRoZ-78" value="" style="endArrow=none;html=1;rounded=0;exitX=0.5;exitY=0;exitDx=0;exitDy=0;strokeWidth=2;" edge="1" parent="1">
          <mxGeometry width="50" height="50" relative="1" as="geometry">
            <mxPoint x="499.81" y="751.1" as="sourcePoint" />
            <mxPoint x="499.81" y="734" as="targetPoint" />
          </mxGeometry>
        </mxCell>
        <mxCell id="bSpO7BN7ynkhuzYYFRoZ-79" value="" style="endArrow=none;html=1;rounded=0;exitX=0.5;exitY=0;exitDx=0;exitDy=0;entryX=0.758;entryY=1.035;entryDx=0;entryDy=0;entryPerimeter=0;strokeWidth=2;" edge="1" parent="1">
          <mxGeometry width="50" height="50" relative="1" as="geometry">
            <mxPoint x="1099.66" y="818" as="sourcePoint" />
            <mxPoint x="1099.66" y="734" as="targetPoint" />
          </mxGeometry>
        </mxCell>
        <mxCell id="bSpO7BN7ynkhuzYYFRoZ-81" value="" style="endArrow=none;html=1;rounded=0;exitX=0.5;exitY=0;exitDx=0;exitDy=0;strokeWidth=2;" edge="1" parent="1">
          <mxGeometry width="50" height="50" relative="1" as="geometry">
            <mxPoint x="392.4" y="684" as="sourcePoint" />
            <mxPoint x="392.4" y="666.9" as="targetPoint" />
          </mxGeometry>
        </mxCell>
        <mxCell id="bSpO7BN7ynkhuzYYFRoZ-82" value="&lt;font style=&quot;font-size: 43px;&quot;&gt;Virtual Resource&lt;br style=&quot;font-size: 43px;&quot;&gt;&lt;/font&gt;" style="rounded=0;whiteSpace=wrap;html=1;verticalAlign=middle;spacingTop=3;fontSize=43;strokeWidth=2;" vertex="1" parent="1">
          <mxGeometry x="-400" y="565" width="275" height="102" as="geometry" />
        </mxCell>
        <mxCell id="bSpO7BN7ynkhuzYYFRoZ-83" value="&lt;font style=&quot;font-size: 43px;&quot;&gt;Virtual Resource&lt;br style=&quot;font-size: 43px;&quot;&gt;&lt;/font&gt;" style="rounded=0;whiteSpace=wrap;html=1;verticalAlign=middle;spacingTop=3;fontSize=43;strokeWidth=2;" vertex="1" parent="1">
          <mxGeometry x="-70" y="565" width="275" height="102" as="geometry" />
        </mxCell>
        <mxCell id="bSpO7BN7ynkhuzYYFRoZ-84" value="&lt;font style=&quot;font-size: 43px;&quot;&gt;Containerized Resource&lt;br style=&quot;font-size: 43px;&quot;&gt;&lt;/font&gt;" style="rounded=0;whiteSpace=wrap;html=1;verticalAlign=middle;spacingTop=3;fontSize=43;strokeWidth=2;" vertex="1" parent="1">
          <mxGeometry x="255" y="565" width="275" height="102" as="geometry" />
        </mxCell>
        <mxCell id="bSpO7BN7ynkhuzYYFRoZ-85" value="&lt;font style=&quot;font-size: 43px;&quot;&gt;Containerized Resource&lt;/font&gt;&lt;font style=&quot;font-size: 43px;&quot;&gt;&lt;/font&gt;" style="rounded=0;whiteSpace=wrap;html=1;verticalAlign=middle;spacingTop=3;fontSize=43;strokeWidth=2;" vertex="1" parent="1">
          <mxGeometry x="665.5" y="565" width="275" height="102" as="geometry" />
        </mxCell>
        <mxCell id="bSpO7BN7ynkhuzYYFRoZ-86" value="&lt;font style=&quot;font-size: 43px;&quot;&gt;Containerized Resource&lt;/font&gt;&lt;font style=&quot;font-size: 43px;&quot;&gt;&lt;/font&gt;" style="rounded=0;whiteSpace=wrap;html=1;verticalAlign=middle;spacingTop=3;fontSize=43;strokeWidth=2;" vertex="1" parent="1">
          <mxGeometry x="1075" y="565" width="275" height="102" as="geometry" />
        </mxCell>
        <mxCell id="bSpO7BN7ynkhuzYYFRoZ-90" value="" style="endArrow=none;html=1;rounded=0;exitX=0.5;exitY=0;exitDx=0;exitDy=0;strokeWidth=2;" edge="1" parent="1">
          <mxGeometry width="50" height="50" relative="1" as="geometry">
            <mxPoint x="802.86" y="684.1" as="sourcePoint" />
            <mxPoint x="802.86" y="667" as="targetPoint" />
          </mxGeometry>
        </mxCell>
        <mxCell id="bSpO7BN7ynkhuzYYFRoZ-91" value="" style="endArrow=none;html=1;rounded=0;exitX=0.5;exitY=0;exitDx=0;exitDy=0;" edge="1" parent="1">
          <mxGeometry width="50" height="50" relative="1" as="geometry">
            <mxPoint x="1212.3999999999999" y="684.1000000000001" as="sourcePoint" />
            <mxPoint x="1212.3999999999999" y="667" as="targetPoint" />
          </mxGeometry>
        </mxCell>
        <mxCell id="bSpO7BN7ynkhuzYYFRoZ-94" value="" style="endArrow=none;html=1;rounded=0;exitX=0.5;exitY=0;exitDx=0;exitDy=0;strokeWidth=2;" edge="1" parent="1">
          <mxGeometry width="50" height="50" relative="1" as="geometry">
            <mxPoint x="-270.48" y="753.05" as="sourcePoint" />
            <mxPoint x="-270.48" y="668.9499999999999" as="targetPoint" />
          </mxGeometry>
        </mxCell>
        <mxCell id="bSpO7BN7ynkhuzYYFRoZ-95" value="" style="endArrow=none;html=1;rounded=0;exitX=0.5;exitY=0;exitDx=0;exitDy=0;strokeWidth=2;" edge="1" parent="1">
          <mxGeometry width="50" height="50" relative="1" as="geometry">
            <mxPoint x="67.30000000000001" y="751" as="sourcePoint" />
            <mxPoint x="67.30000000000001" y="666.9" as="targetPoint" />
          </mxGeometry>
        </mxCell>
        <mxCell id="bSpO7BN7ynkhuzYYFRoZ-96" value="&lt;font style=&quot;font-size: 46px;&quot;&gt;&lt;b style=&quot;font-size: 46px;&quot;&gt;Network Function Virtualization Infrastructure (NFVI)&lt;/b&gt;&lt;font style=&quot;font-size: 46px;&quot;&gt;&lt;b style=&quot;font-size: 46px;&quot;&gt;&lt;br style=&quot;font-size: 46px;&quot;&gt;&lt;/b&gt;&lt;/font&gt;&lt;/font&gt;" style="text;html=1;align=center;verticalAlign=top;whiteSpace=wrap;rounded=0;spacingTop=-2;fontSize=46;" vertex="1" parent="1">
          <mxGeometry x="-442" y="506" width="2442" height="70" as="geometry" />
        </mxCell>
        <mxCell id="Zt0NYIdcGdnUJ9LrQltJ-24" value="&lt;font style=&quot;font-size: 43px;&quot;&gt;WAN&lt;/font&gt;" style="rounded=0;whiteSpace=wrap;html=1;fillColor=#d5e8d4;strokeColor=#82b366;strokeWidth=4;fontSize=43;" vertex="1" parent="1">
          <mxGeometry x="850" y="946" width="1150" height="90" as="geometry" />
        </mxCell>
        <mxCell id="Zt0NYIdcGdnUJ9LrQltJ-43" value="" style="group;fillColor=#f8cecc;strokeColor=#b85450;strokeWidth=4;" connectable="0" vertex="1" parent="1">
          <mxGeometry x="-450" y="-2090" width="630" height="139" as="geometry" />
        </mxCell>
        <mxCell id="Zt0NYIdcGdnUJ9LrQltJ-44" value="" style="rounded=0;whiteSpace=wrap;html=1;fillColor=#f8cecc;strokeColor=#b85450;" vertex="1" parent="Zt0NYIdcGdnUJ9LrQltJ-43">
          <mxGeometry width="630" height="139" as="geometry" />
        </mxCell>
        <mxCell id="Zt0NYIdcGdnUJ9LrQltJ-45" value="&lt;font style=&quot;font-size: 46px;&quot;&gt;&lt;b&gt;3rd party OSS/BSS (Vertical)&lt;/b&gt;&lt;/font&gt;" style="text;html=1;align=center;verticalAlign=top;whiteSpace=wrap;rounded=0;spacingTop=5;" vertex="1" parent="Zt0NYIdcGdnUJ9LrQltJ-43">
          <mxGeometry width="630" height="34.75" as="geometry" />
        </mxCell>
        <mxCell id="Zt0NYIdcGdnUJ9LrQltJ-5" value="" style="rounded=0;whiteSpace=wrap;html=1;container=0;fillColor=#f8cecc;strokeColor=#b85450;strokeWidth=4;" vertex="1" parent="1">
          <mxGeometry x="1170" y="-2091" width="850" height="850" as="geometry" />
        </mxCell>
        <mxCell id="Zt0NYIdcGdnUJ9LrQltJ-6" value="&lt;font style=&quot;font-size: 46px;&quot;&gt;&lt;b&gt;MANO&lt;br&gt;&lt;/b&gt;&lt;/font&gt;" style="text;html=1;align=center;verticalAlign=top;whiteSpace=wrap;rounded=0;spacingTop=5;container=0;" vertex="1" parent="1">
          <mxGeometry x="1170" y="-2086" width="850" height="50" as="geometry" />
        </mxCell>
        <mxCell id="Zt0NYIdcGdnUJ9LrQltJ-47" style="edgeStyle=orthogonalEdgeStyle;rounded=0;orthogonalLoop=1;jettySize=auto;html=1;exitX=0.5;exitY=1;exitDx=0;exitDy=0;entryX=0.5;entryY=0;entryDx=0;entryDy=0;endArrow=none;endFill=0;strokeWidth=2;" edge="1" parent="1" source="Zt0NYIdcGdnUJ9LrQltJ-18" target="Zt0NYIdcGdnUJ9LrQltJ-19">
          <mxGeometry relative="1" as="geometry" />
        </mxCell>
        <mxCell id="Zt0NYIdcGdnUJ9LrQltJ-50" style="edgeStyle=orthogonalEdgeStyle;rounded=0;orthogonalLoop=1;jettySize=auto;html=1;entryX=1;entryY=0.5;entryDx=0;entryDy=0;endArrow=none;endFill=0;exitX=1.008;exitY=0.91;exitDx=0;exitDy=0;exitPerimeter=0;strokeWidth=2;" edge="1" parent="1" source="Zt0NYIdcGdnUJ9LrQltJ-18" target="Zt0NYIdcGdnUJ9LrQltJ-20">
          <mxGeometry relative="1" as="geometry">
            <Array as="points">
              <mxPoint x="1820" y="-1901" />
              <mxPoint x="1820" y="-1341" />
            </Array>
            <mxPoint x="1730" y="-1914" as="sourcePoint" />
          </mxGeometry>
        </mxCell>
        <mxCell id="Zt0NYIdcGdnUJ9LrQltJ-51" style="edgeStyle=orthogonalEdgeStyle;rounded=0;orthogonalLoop=1;jettySize=auto;html=1;exitX=1;exitY=0.75;exitDx=0;exitDy=0;entryX=0.5;entryY=0;entryDx=0;entryDy=0;endArrow=none;endFill=0;strokeWidth=2;" edge="1" parent="1" source="Zt0NYIdcGdnUJ9LrQltJ-18" target="Zt0NYIdcGdnUJ9LrQltJ-23">
          <mxGeometry relative="1" as="geometry" />
        </mxCell>
        <mxCell id="Zt0NYIdcGdnUJ9LrQltJ-52" style="edgeStyle=orthogonalEdgeStyle;rounded=0;orthogonalLoop=1;jettySize=auto;html=1;exitX=0;exitY=0.75;exitDx=0;exitDy=0;entryX=1;entryY=0.5;entryDx=0;entryDy=0;endArrow=none;endFill=0;fillColor=#a20025;strokeColor=#A60000;strokeWidth=3;startArrow=classic;startFill=1;endSize=9;startSize=9;" edge="1" parent="1" source="Zt0NYIdcGdnUJ9LrQltJ-18" target="Zt0NYIdcGdnUJ9LrQltJ-15">
          <mxGeometry relative="1" as="geometry" />
        </mxCell>
        <mxCell id="Zt0NYIdcGdnUJ9LrQltJ-53" style="edgeStyle=orthogonalEdgeStyle;rounded=0;orthogonalLoop=1;jettySize=auto;html=1;exitX=0;exitY=0.5;exitDx=0;exitDy=0;entryX=1;entryY=0.5;entryDx=0;entryDy=0;endArrow=none;endFill=0;fillColor=#a20025;strokeColor=#A60000;strokeWidth=3;startArrow=classic;startFill=1;endSize=9;startSize=9;" edge="1" parent="1" source="Zt0NYIdcGdnUJ9LrQltJ-18" target="Zt0NYIdcGdnUJ9LrQltJ-10">
          <mxGeometry relative="1" as="geometry">
            <Array as="points">
              <mxPoint x="1190" y="-1934" />
              <mxPoint x="1190" y="-1861" />
            </Array>
          </mxGeometry>
        </mxCell>
        <mxCell id="CqHk4jJskdGlvBJO3M9F-23" style="edgeStyle=orthogonalEdgeStyle;rounded=0;orthogonalLoop=1;jettySize=auto;html=1;exitX=0.25;exitY=1;exitDx=0;exitDy=0;entryX=0.25;entryY=0;entryDx=0;entryDy=0;endArrow=none;endFill=0;strokeWidth=2;" edge="1" parent="1" source="Zt0NYIdcGdnUJ9LrQltJ-18" target="Zt0NYIdcGdnUJ9LrQltJ-21">
          <mxGeometry relative="1" as="geometry">
            <Array as="points">
              <mxPoint x="1533" y="-1841" />
              <mxPoint x="1323" y="-1841" />
            </Array>
          </mxGeometry>
        </mxCell>
        <mxCell id="CqHk4jJskdGlvBJO3M9F-32" style="edgeStyle=orthogonalEdgeStyle;rounded=0;orthogonalLoop=1;jettySize=auto;html=1;exitX=1;exitY=0.5;exitDx=0;exitDy=0;entryX=1;entryY=0.5;entryDx=0;entryDy=0;strokeColor=#A60000;strokeWidth=3;endArrow=classic;endFill=1;endSize=9;startSize=9;" edge="1" parent="1" source="Zt0NYIdcGdnUJ9LrQltJ-18" target="bSpO7BN7ynkhuzYYFRoZ-10">
          <mxGeometry relative="1" as="geometry">
            <Array as="points">
              <mxPoint x="2240" y="-1933" />
              <mxPoint x="2240" y="-837" />
            </Array>
          </mxGeometry>
        </mxCell>
        <mxCell id="CqHk4jJskdGlvBJO3M9F-33" style="edgeStyle=orthogonalEdgeStyle;rounded=0;orthogonalLoop=1;jettySize=auto;html=1;exitX=1;exitY=0.25;exitDx=0;exitDy=0;entryX=1;entryY=0.5;entryDx=0;entryDy=0;strokeColor=#A60000;strokeWidth=3;endArrow=classic;endFill=1;endSize=9;startSize=9;" edge="1" parent="1" source="Zt0NYIdcGdnUJ9LrQltJ-18" target="bSpO7BN7ynkhuzYYFRoZ-19">
          <mxGeometry relative="1" as="geometry">
            <Array as="points">
              <mxPoint x="2280" y="-1953" />
              <mxPoint x="2280" y="-533" />
            </Array>
          </mxGeometry>
        </mxCell>
        <mxCell id="Zt0NYIdcGdnUJ9LrQltJ-18" value="&lt;font style=&quot;font-size: 43px;&quot;&gt;NFVO&lt;/font&gt;" style="rounded=0;whiteSpace=wrap;html=1;verticalAlign=middle;spacingTop=3;container=0;fontSize=43;strokeWidth=2;" vertex="1" parent="1">
          <mxGeometry x="1490" y="-1973.5" width="170" height="80" as="geometry" />
        </mxCell>
        <mxCell id="Zt0NYIdcGdnUJ9LrQltJ-49" style="edgeStyle=orthogonalEdgeStyle;rounded=0;orthogonalLoop=1;jettySize=auto;html=1;exitX=0.5;exitY=1;exitDx=0;exitDy=0;entryX=0.5;entryY=0;entryDx=0;entryDy=0;endArrow=none;endFill=0;strokeWidth=2;" edge="1" parent="1" source="Zt0NYIdcGdnUJ9LrQltJ-19" target="Zt0NYIdcGdnUJ9LrQltJ-20">
          <mxGeometry relative="1" as="geometry" />
        </mxCell>
        <mxCell id="Zt0NYIdcGdnUJ9LrQltJ-55" style="edgeStyle=orthogonalEdgeStyle;rounded=0;orthogonalLoop=1;jettySize=auto;html=1;exitX=0;exitY=0.5;exitDx=0;exitDy=0;entryX=1;entryY=0.25;entryDx=0;entryDy=0;endArrow=none;endFill=0;fillColor=#a20025;strokeColor=#A60000;strokeWidth=3;startArrow=classic;startFill=1;endSize=9;startSize=9;" edge="1" parent="1" source="Zt0NYIdcGdnUJ9LrQltJ-19" target="Zt0NYIdcGdnUJ9LrQltJ-40">
          <mxGeometry relative="1" as="geometry">
            <Array as="points">
              <mxPoint x="1230" y="-1761" />
              <mxPoint x="1230" y="-1461" />
              <mxPoint x="1020" y="-1461" />
            </Array>
          </mxGeometry>
        </mxCell>
        <mxCell id="Zt0NYIdcGdnUJ9LrQltJ-57" style="edgeStyle=orthogonalEdgeStyle;rounded=0;orthogonalLoop=1;jettySize=auto;html=1;exitX=1;exitY=0.5;exitDx=0;exitDy=0;entryX=1;entryY=0.311;entryDx=0;entryDy=0;strokeWidth=3;endArrow=classic;endFill=1;strokeColor=#A60000;entryPerimeter=0;endSize=9;startSize=9;" edge="1" parent="1" source="Zt0NYIdcGdnUJ9LrQltJ-19" target="bSpO7BN7ynkhuzYYFRoZ-25">
          <mxGeometry relative="1" as="geometry">
            <Array as="points">
              <mxPoint x="2120" y="-1761" />
              <mxPoint x="2120" y="-136" />
            </Array>
          </mxGeometry>
        </mxCell>
        <mxCell id="Zt0NYIdcGdnUJ9LrQltJ-19" value="&lt;font style=&quot;font-size: 43px;&quot;&gt;VNFM&lt;/font&gt;" style="rounded=0;whiteSpace=wrap;html=1;verticalAlign=middle;spacingTop=3;container=0;fontSize=43;strokeWidth=2;" vertex="1" parent="1">
          <mxGeometry x="1490" y="-1801" width="170" height="80" as="geometry" />
        </mxCell>
        <mxCell id="CqHk4jJskdGlvBJO3M9F-24" style="edgeStyle=orthogonalEdgeStyle;rounded=0;orthogonalLoop=1;jettySize=auto;html=1;exitX=0.5;exitY=1;exitDx=0;exitDy=0;entryX=1;entryY=0.25;entryDx=0;entryDy=0;strokeColor=#A60000;strokeWidth=3;endArrow=classic;endFill=1;endSize=9;startSize=9;" edge="1" parent="1" source="Zt0NYIdcGdnUJ9LrQltJ-20" target="bSpO7BN7ynkhuzYYFRoZ-1">
          <mxGeometry relative="1" as="geometry">
            <Array as="points">
              <mxPoint x="1575" y="-1270" />
              <mxPoint x="2160" y="-1270" />
              <mxPoint x="2160" y="589" />
            </Array>
          </mxGeometry>
        </mxCell>
        <mxCell id="Zt0NYIdcGdnUJ9LrQltJ-20" value="&lt;font style=&quot;font-size: 43px;&quot;&gt;VIM&lt;/font&gt;" style="rounded=0;whiteSpace=wrap;html=1;verticalAlign=middle;spacingTop=3;container=0;fontSize=43;strokeWidth=2;" vertex="1" parent="1">
          <mxGeometry x="1490" y="-1381" width="170" height="80" as="geometry" />
        </mxCell>
        <mxCell id="Zt0NYIdcGdnUJ9LrQltJ-56" style="edgeStyle=orthogonalEdgeStyle;rounded=0;orthogonalLoop=1;jettySize=auto;html=1;exitX=0;exitY=0.5;exitDx=0;exitDy=0;entryX=1;entryY=0.5;entryDx=0;entryDy=0;endArrow=none;endFill=0;fillColor=#a20025;strokeColor=#A60000;strokeWidth=3;startArrow=classic;startFill=1;endSize=9;startSize=9;" edge="1" parent="1" source="Zt0NYIdcGdnUJ9LrQltJ-21" target="Zt0NYIdcGdnUJ9LrQltJ-40">
          <mxGeometry relative="1" as="geometry">
            <Array as="points">
              <mxPoint x="1250" y="-1651" />
              <mxPoint x="1250" y="-1431" />
              <mxPoint x="1020" y="-1431" />
            </Array>
          </mxGeometry>
        </mxCell>
        <mxCell id="CqHk4jJskdGlvBJO3M9F-19" style="edgeStyle=orthogonalEdgeStyle;rounded=0;orthogonalLoop=1;jettySize=auto;html=1;exitX=1;exitY=0.5;exitDx=0;exitDy=0;entryX=0;entryY=0.25;entryDx=0;entryDy=0;endArrow=none;endFill=0;strokeWidth=2;" edge="1" parent="1" source="Zt0NYIdcGdnUJ9LrQltJ-21" target="Zt0NYIdcGdnUJ9LrQltJ-22">
          <mxGeometry relative="1" as="geometry" />
        </mxCell>
        <mxCell id="Zt0NYIdcGdnUJ9LrQltJ-21" value="&lt;font style=&quot;font-size: 43px;&quot;&gt;CISM&lt;/font&gt;" style="rounded=0;whiteSpace=wrap;html=1;verticalAlign=middle;spacingTop=3;container=0;fontSize=43;strokeWidth=2;" vertex="1" parent="1">
          <mxGeometry x="1299" y="-1691" width="170" height="80" as="geometry" />
        </mxCell>
        <mxCell id="CqHk4jJskdGlvBJO3M9F-16" style="edgeStyle=orthogonalEdgeStyle;rounded=0;orthogonalLoop=1;jettySize=auto;html=1;exitX=0.5;exitY=0;exitDx=0;exitDy=0;entryX=0.75;entryY=1;entryDx=0;entryDy=0;endArrow=none;endFill=0;strokeWidth=2;" edge="1" parent="1" source="Zt0NYIdcGdnUJ9LrQltJ-22" target="Zt0NYIdcGdnUJ9LrQltJ-18">
          <mxGeometry relative="1" as="geometry">
            <Array as="points">
              <mxPoint x="1705" y="-1861" />
              <mxPoint x="1618" y="-1861" />
              <mxPoint x="1618" y="-1893" />
            </Array>
          </mxGeometry>
        </mxCell>
        <mxCell id="CqHk4jJskdGlvBJO3M9F-18" style="edgeStyle=orthogonalEdgeStyle;rounded=0;orthogonalLoop=1;jettySize=auto;html=1;exitX=0.5;exitY=1;exitDx=0;exitDy=0;entryX=1;entryY=0.25;entryDx=0;entryDy=0;endArrow=none;endFill=0;strokeWidth=2;" edge="1" parent="1" source="Zt0NYIdcGdnUJ9LrQltJ-22" target="Zt0NYIdcGdnUJ9LrQltJ-20">
          <mxGeometry relative="1" as="geometry" />
        </mxCell>
        <mxCell id="Zt0NYIdcGdnUJ9LrQltJ-22" value="&lt;font style=&quot;font-size: 43px;&quot;&gt;CCM&lt;/font&gt;" style="rounded=0;whiteSpace=wrap;html=1;verticalAlign=middle;spacingTop=3;container=0;fontSize=43;strokeWidth=2;" vertex="1" parent="1">
          <mxGeometry x="1620" y="-1631" width="170" height="80" as="geometry" />
        </mxCell>
        <mxCell id="CqHk4jJskdGlvBJO3M9F-25" style="edgeStyle=orthogonalEdgeStyle;rounded=0;orthogonalLoop=1;jettySize=auto;html=1;exitX=1;exitY=0.5;exitDx=0;exitDy=0;entryX=1;entryY=0.5;entryDx=0;entryDy=0;strokeColor=#A60000;strokeWidth=3;endArrow=classic;endFill=1;endSize=9;startSize=9;" edge="1" parent="1" source="Zt0NYIdcGdnUJ9LrQltJ-23" target="Zt0NYIdcGdnUJ9LrQltJ-24">
          <mxGeometry relative="1" as="geometry">
            <Array as="points">
              <mxPoint x="2200" y="-1340" />
              <mxPoint x="2200" y="991" />
            </Array>
          </mxGeometry>
        </mxCell>
        <mxCell id="Zt0NYIdcGdnUJ9LrQltJ-23" value="&lt;font style=&quot;font-size: 43px;&quot;&gt;WIM&lt;/font&gt;" style="rounded=0;whiteSpace=wrap;html=1;verticalAlign=middle;spacingTop=3;container=0;fontSize=43;strokeWidth=2;" vertex="1" parent="1">
          <mxGeometry x="1840" y="-1381" width="170" height="80" as="geometry" />
        </mxCell>
        <mxCell id="Zt0NYIdcGdnUJ9LrQltJ-34" value="&lt;font style=&quot;font-size: 43px;&quot;&gt;CIR&lt;/font&gt;" style="rounded=0;whiteSpace=wrap;html=1;verticalAlign=middle;spacingTop=3;container=0;fontSize=43;strokeWidth=2;" vertex="1" parent="1">
          <mxGeometry x="1305" y="-1551" width="120" height="50" as="geometry" />
        </mxCell>
        <mxCell id="Zt0NYIdcGdnUJ9LrQltJ-69" style="edgeStyle=orthogonalEdgeStyle;rounded=0;orthogonalLoop=1;jettySize=auto;html=1;exitX=1;exitY=0.5;exitDx=0;exitDy=0;entryX=1;entryY=0.5;entryDx=0;entryDy=0;fillColor=#f8cecc;strokeColor=#009900;strokeWidth=3;endSize=9;startSize=9;" edge="1" parent="1" source="Zt0NYIdcGdnUJ9LrQltJ-59" target="bSpO7BN7ynkhuzYYFRoZ-1">
          <mxGeometry relative="1" as="geometry">
            <Array as="points">
              <mxPoint x="2080" y="-1136" />
              <mxPoint x="2080" y="690" />
              <mxPoint x="2020" y="690" />
            </Array>
          </mxGeometry>
        </mxCell>
        <mxCell id="Zt0NYIdcGdnUJ9LrQltJ-59" value="" style="rounded=0;whiteSpace=wrap;html=1;container=0;fillColor=#f8cecc;strokeColor=#b85450;strokeWidth=3;" vertex="1" parent="1">
          <mxGeometry x="350" y="-1211" width="1670" height="150" as="geometry" />
        </mxCell>
        <mxCell id="Zt0NYIdcGdnUJ9LrQltJ-60" value="&lt;font size=&quot;1&quot;&gt;&lt;b style=&quot;font-size: 43px;&quot;&gt;SBMA&lt;/b&gt;&lt;/font&gt;" style="rounded=0;whiteSpace=wrap;html=1;container=0;fillColor=#B3B3B3;spacingTop=11;strokeWidth=2;" vertex="1" parent="1">
          <mxGeometry x="360" y="-1191" width="1640" height="41" as="geometry" />
        </mxCell>
        <mxCell id="Zt0NYIdcGdnUJ9LrQltJ-61" value="&lt;font style=&quot;font-size: 43px;&quot;&gt;MnS&lt;/font&gt;" style="rounded=0;whiteSpace=wrap;html=1;verticalAlign=middle;spacingTop=8;container=0;fontSize=43;strokeWidth=2;" vertex="1" parent="1">
          <mxGeometry x="440" y="-1134" width="170" height="50" as="geometry" />
        </mxCell>
        <mxCell id="Zt0NYIdcGdnUJ9LrQltJ-62" value="&lt;font style=&quot;font-size: 43px;&quot;&gt;MnS&lt;/font&gt;" style="rounded=0;whiteSpace=wrap;html=1;verticalAlign=middle;spacingTop=8;container=0;fontSize=43;strokeWidth=2;" vertex="1" parent="1">
          <mxGeometry x="658" y="-1134" width="170" height="50" as="geometry" />
        </mxCell>
        <mxCell id="Zt0NYIdcGdnUJ9LrQltJ-63" value="&lt;font style=&quot;font-size: 43px;&quot;&gt;MnS&lt;/font&gt;" style="rounded=0;whiteSpace=wrap;html=1;verticalAlign=middle;spacingTop=8;container=0;fontSize=43;strokeWidth=2;" vertex="1" parent="1">
          <mxGeometry x="876" y="-1134" width="170" height="50" as="geometry" />
        </mxCell>
        <mxCell id="Zt0NYIdcGdnUJ9LrQltJ-64" value="&lt;font style=&quot;font-size: 43px;&quot;&gt;MnS&lt;/font&gt;" style="rounded=0;whiteSpace=wrap;html=1;verticalAlign=middle;spacingTop=8;container=0;fontSize=43;strokeWidth=2;" vertex="1" parent="1">
          <mxGeometry x="1091.5" y="-1134" width="170" height="50" as="geometry" />
        </mxCell>
        <mxCell id="Zt0NYIdcGdnUJ9LrQltJ-65" value="&lt;font style=&quot;font-size: 43px;&quot;&gt;MnS&lt;/font&gt;" style="rounded=0;whiteSpace=wrap;html=1;verticalAlign=middle;spacingTop=3;container=0;fontSize=43;strokeWidth=2;" vertex="1" parent="1">
          <mxGeometry x="1309.5" y="-1134" width="170" height="50" as="geometry" />
        </mxCell>
        <mxCell id="Zt0NYIdcGdnUJ9LrQltJ-66" value="&lt;font style=&quot;font-size: 43px;&quot;&gt;MnS&lt;/font&gt;" style="rounded=0;whiteSpace=wrap;html=1;verticalAlign=middle;spacingTop=8;container=0;fontSize=43;strokeWidth=2;" vertex="1" parent="1">
          <mxGeometry x="1527.5" y="-1134" width="170" height="50" as="geometry" />
        </mxCell>
        <mxCell id="Zt0NYIdcGdnUJ9LrQltJ-67" value="&lt;font style=&quot;font-size: 43px;&quot;&gt;MnS&lt;/font&gt;" style="rounded=0;whiteSpace=wrap;html=1;verticalAlign=middle;spacingTop=8;container=0;fontSize=43;strokeWidth=2;" vertex="1" parent="1">
          <mxGeometry x="1750" y="-1134" width="170" height="50" as="geometry" />
        </mxCell>
        <mxCell id="Zt0NYIdcGdnUJ9LrQltJ-68" style="edgeStyle=orthogonalEdgeStyle;rounded=0;orthogonalLoop=1;jettySize=auto;html=1;exitX=0.5;exitY=1;exitDx=0;exitDy=0;entryX=-0.004;entryY=0.307;entryDx=0;entryDy=0;strokeWidth=3;endArrow=classic;endFill=1;strokeColor=#A60000;entryPerimeter=0;endSize=9;startSize=9;" edge="1" parent="1" source="Zt0NYIdcGdnUJ9LrQltJ-40" target="bSpO7BN7ynkhuzYYFRoZ-25">
          <mxGeometry relative="1" as="geometry">
            <Array as="points">
              <mxPoint x="925" y="-1330" />
              <mxPoint x="280" y="-1330" />
              <mxPoint x="280" y="-139" />
            </Array>
          </mxGeometry>
        </mxCell>
        <mxCell id="Zt0NYIdcGdnUJ9LrQltJ-70" style="edgeStyle=orthogonalEdgeStyle;rounded=0;orthogonalLoop=1;jettySize=auto;html=1;exitX=0.5;exitY=1;exitDx=0;exitDy=0;entryX=0.644;entryY=0;entryDx=0;entryDy=0;entryPerimeter=0;strokeColor=#009900;strokeWidth=3;endSize=9;startSize=9;" edge="1" parent="1" target="bSpO7BN7ynkhuzYYFRoZ-1">
          <mxGeometry relative="1" as="geometry">
            <mxPoint x="1154.000000000001" y="317" as="sourcePoint" />
          </mxGeometry>
        </mxCell>
        <mxCell id="Zt0NYIdcGdnUJ9LrQltJ-87" style="edgeStyle=orthogonalEdgeStyle;rounded=0;orthogonalLoop=1;jettySize=auto;html=1;exitX=1;exitY=0.5;exitDx=0;exitDy=0;entryX=1;entryY=0.5;entryDx=0;entryDy=0;endArrow=none;endFill=0;strokeColor=#A60000;strokeWidth=3;startArrow=classic;startFill=1;endSize=9;startSize=9;" edge="1" parent="1" source="Zt0NYIdcGdnUJ9LrQltJ-74" target="Zt0NYIdcGdnUJ9LrQltJ-85">
          <mxGeometry relative="1" as="geometry">
            <Array as="points">
              <mxPoint x="110" y="-377" />
              <mxPoint x="110" y="-52" />
            </Array>
          </mxGeometry>
        </mxCell>
        <mxCell id="Zt0NYIdcGdnUJ9LrQltJ-88" style="edgeStyle=orthogonalEdgeStyle;rounded=0;orthogonalLoop=1;jettySize=auto;html=1;exitX=1;exitY=0.5;exitDx=0;exitDy=0;entryX=0;entryY=0.5;entryDx=0;entryDy=0;endArrow=none;endFill=0;strokeColor=#A60000;strokeWidth=3;startArrow=classic;startFill=1;endSize=9;startSize=9;" edge="1" parent="1" source="Zt0NYIdcGdnUJ9LrQltJ-72" target="Zt0NYIdcGdnUJ9LrQltJ-71">
          <mxGeometry relative="1" as="geometry">
            <Array as="points">
              <mxPoint x="200" y="-457" />
              <mxPoint x="200" y="-1562" />
            </Array>
          </mxGeometry>
        </mxCell>
        <mxCell id="Zt0NYIdcGdnUJ9LrQltJ-89" style="edgeStyle=orthogonalEdgeStyle;rounded=0;orthogonalLoop=1;jettySize=auto;html=1;exitX=0;exitY=0.75;exitDx=0;exitDy=0;entryX=0;entryY=0.25;entryDx=0;entryDy=0;strokeWidth=3;strokeColor=#009900;endSize=9;startSize=9;" edge="1" parent="1" source="bSpO7BN7ynkhuzYYFRoZ-58" target="bSpO7BN7ynkhuzYYFRoZ-2">
          <mxGeometry relative="1" as="geometry">
            <Array as="points">
              <mxPoint x="-480" y="39" />
              <mxPoint x="-480" y="609" />
            </Array>
          </mxGeometry>
        </mxCell>
        <mxCell id="Zt0NYIdcGdnUJ9LrQltJ-90" style="edgeStyle=orthogonalEdgeStyle;rounded=0;orthogonalLoop=1;jettySize=auto;html=1;exitX=0;exitY=0.75;exitDx=0;exitDy=0;entryX=0;entryY=0.5;entryDx=0;entryDy=0;strokeWidth=3;strokeColor=#009900;endSize=9;startSize=9;" edge="1" parent="1" source="bSpO7BN7ynkhuzYYFRoZ-63" target="bSpO7BN7ynkhuzYYFRoZ-2">
          <mxGeometry relative="1" as="geometry">
            <Array as="points">
              <mxPoint x="-510" y="-359" />
              <mxPoint x="-510" y="710" />
            </Array>
          </mxGeometry>
        </mxCell>
        <mxCell id="Zt0NYIdcGdnUJ9LrQltJ-91" style="edgeStyle=orthogonalEdgeStyle;rounded=0;orthogonalLoop=1;jettySize=auto;html=1;exitX=0.5;exitY=1;exitDx=0;exitDy=0;entryX=0.5;entryY=0;entryDx=0;entryDy=0;endArrow=none;endFill=0;strokeWidth=3;strokeColor=#3333FF;fillColor=#60a917;" edge="1" parent="1" source="n17JWOJfK9OWtjPt9God-1" target="bSpO7BN7ynkhuzYYFRoZ-64">
          <mxGeometry relative="1" as="geometry" />
        </mxCell>
        <mxCell id="Zt0NYIdcGdnUJ9LrQltJ-92" style="edgeStyle=orthogonalEdgeStyle;rounded=0;orthogonalLoop=1;jettySize=auto;html=1;exitX=0.5;exitY=1;exitDx=0;exitDy=0;entryX=0;entryY=0.25;entryDx=0;entryDy=0;strokeWidth=3;strokeColor=#3333FF;endArrow=none;endFill=0;" edge="1" parent="1" source="bSpO7BN7ynkhuzYYFRoZ-63" target="bSpO7BN7ynkhuzYYFRoZ-5">
          <mxGeometry relative="1" as="geometry">
            <Array as="points">
              <mxPoint x="-180" y="-235" />
              <mxPoint x="-470" y="-235" />
              <mxPoint x="-470" y="13" />
              <mxPoint x="-240" y="13" />
            </Array>
          </mxGeometry>
        </mxCell>
        <mxCell id="CqHk4jJskdGlvBJO3M9F-54" value="&lt;font color=&quot;#3333ff&quot; style=&quot;font-size: 35px;&quot;&gt;N3&lt;/font&gt;" style="edgeLabel;html=1;align=center;verticalAlign=middle;resizable=0;points=[];labelBackgroundColor=none;fontSize=35;fontStyle=0" vertex="1" connectable="0" parent="Zt0NYIdcGdnUJ9LrQltJ-92">
          <mxGeometry y="2" relative="1" as="geometry">
            <mxPoint x="158" y="153" as="offset" />
          </mxGeometry>
        </mxCell>
        <mxCell id="Zt0NYIdcGdnUJ9LrQltJ-93" style="edgeStyle=orthogonalEdgeStyle;rounded=0;orthogonalLoop=1;jettySize=auto;html=1;exitX=0.5;exitY=1;exitDx=0;exitDy=0;entryX=0.501;entryY=0.154;entryDx=0;entryDy=0;entryPerimeter=0;endArrow=none;endFill=0;strokeColor=#3333FF;strokeWidth=3;" edge="1" parent="1" source="bSpO7BN7ynkhuzYYFRoZ-5">
          <mxGeometry relative="1" as="geometry">
            <mxPoint x="-179.66499999999905" y="212.03999999999996" as="targetPoint" />
          </mxGeometry>
        </mxCell>
        <mxCell id="CqHk4jJskdGlvBJO3M9F-1" style="edgeStyle=orthogonalEdgeStyle;rounded=0;orthogonalLoop=1;jettySize=auto;html=1;exitX=1;exitY=0.5;exitDx=0;exitDy=0;entryX=0;entryY=0.5;entryDx=0;entryDy=0;strokeColor=#A60000;strokeWidth=3;endArrow=classic;endFill=1;endSize=9;startSize=9;" edge="1" parent="1" source="Zt0NYIdcGdnUJ9LrQltJ-44" target="Zt0NYIdcGdnUJ9LrQltJ-42">
          <mxGeometry relative="1" as="geometry">
            <Array as="points">
              <mxPoint x="290" y="-2021" />
              <mxPoint x="290" y="-1450" />
            </Array>
          </mxGeometry>
        </mxCell>
        <mxCell id="CqHk4jJskdGlvBJO3M9F-7" style="edgeStyle=orthogonalEdgeStyle;rounded=0;orthogonalLoop=1;jettySize=auto;html=1;exitX=0.5;exitY=1;exitDx=0;exitDy=0;" edge="1" parent="1" source="bSpO7BN7ynkhuzYYFRoZ-2" target="bSpO7BN7ynkhuzYYFRoZ-2">
          <mxGeometry relative="1" as="geometry" />
        </mxCell>
        <mxCell id="CqHk4jJskdGlvBJO3M9F-11" style="edgeStyle=orthogonalEdgeStyle;rounded=0;orthogonalLoop=1;jettySize=auto;html=1;exitX=0.5;exitY=0;exitDx=0;exitDy=0;entryX=0.5;entryY=1;entryDx=0;entryDy=0;endArrow=none;endFill=0;strokeWidth=2;" edge="1" parent="1" source="CqHk4jJskdGlvBJO3M9F-8" target="CqHk4jJskdGlvBJO3M9F-10">
          <mxGeometry relative="1" as="geometry" />
        </mxCell>
        <mxCell id="CqHk4jJskdGlvBJO3M9F-8" value="&lt;font style=&quot;font-size: 43px;&quot;&gt;Physical Resource&lt;br style=&quot;font-size: 43px;&quot;&gt;&lt;/font&gt;" style="rounded=0;whiteSpace=wrap;html=1;verticalAlign=middle;spacingTop=3;fontSize=43;strokeWidth=2;" vertex="1" parent="1">
          <mxGeometry x="1450" y="818" width="500" height="80" as="geometry" />
        </mxCell>
        <mxCell id="CqHk4jJskdGlvBJO3M9F-10" value="&lt;font style=&quot;font-size: 43px;&quot;&gt;Physical Resource&lt;/font&gt;&lt;font style=&quot;font-size: 43px;&quot;&gt;&lt;/font&gt;" style="rounded=0;whiteSpace=wrap;html=1;verticalAlign=middle;spacingTop=3;fontSize=43;strokeWidth=2;" vertex="1" parent="1">
          <mxGeometry x="1562.5" y="565" width="275" height="102" as="geometry" />
        </mxCell>
        <mxCell id="CqHk4jJskdGlvBJO3M9F-13" value="" style="endArrow=none;html=1;rounded=0;exitX=0.5;exitY=0;exitDx=0;exitDy=0;strokeWidth=2;" edge="1" parent="1">
          <mxGeometry width="50" height="50" relative="1" as="geometry">
            <mxPoint x="499.87" y="818.1" as="sourcePoint" />
            <mxPoint x="499.87" y="801" as="targetPoint" />
          </mxGeometry>
        </mxCell>
        <mxCell id="CqHk4jJskdGlvBJO3M9F-14" value="" style="endArrow=none;html=1;rounded=0;exitX=0.5;exitY=0;exitDx=0;exitDy=0;strokeWidth=2;" edge="1" parent="1">
          <mxGeometry width="50" height="50" relative="1" as="geometry">
            <mxPoint x="-150.23000000000002" y="818.1" as="sourcePoint" />
            <mxPoint x="-150.23000000000002" y="801" as="targetPoint" />
          </mxGeometry>
        </mxCell>
        <mxCell id="CqHk4jJskdGlvBJO3M9F-15" style="edgeStyle=orthogonalEdgeStyle;rounded=0;orthogonalLoop=1;jettySize=auto;html=1;exitX=1;exitY=0.5;exitDx=0;exitDy=0;endArrow=none;endFill=0;strokeColor=#3333FF;dashed=1;strokeWidth=3;dashPattern=8 8;entryX=0;entryY=0.25;entryDx=0;entryDy=0;" edge="1" parent="1" source="n17JWOJfK9OWtjPt9God-1" target="bSpO7BN7ynkhuzYYFRoZ-27">
          <mxGeometry relative="1" as="geometry">
            <mxPoint x="640" y="-235" as="targetPoint" />
            <Array as="points">
              <mxPoint x="650" y="-769" />
              <mxPoint x="650" y="-249" />
            </Array>
          </mxGeometry>
        </mxCell>
        <mxCell id="bSpO7BN7ynkhuzYYFRoZ-6" value="&lt;font style=&quot;font-size: 46px;&quot;&gt;&lt;b style=&quot;font-size: 46px;&quot;&gt;DN&lt;/b&gt;&lt;/font&gt;" style="ellipse;shape=cloud;whiteSpace=wrap;html=1;fillColor=#dae8fc;strokeColor=#6c8ebf;strokeWidth=4;fontSize=46;" vertex="1" parent="1">
          <mxGeometry x="-347.5" y="164" width="335" height="260" as="geometry" />
        </mxCell>
        <mxCell id="CqHk4jJskdGlvBJO3M9F-21" style="edgeStyle=orthogonalEdgeStyle;rounded=0;orthogonalLoop=1;jettySize=auto;html=1;exitX=0.75;exitY=0;exitDx=0;exitDy=0;entryX=0.137;entryY=1.004;entryDx=0;entryDy=0;entryPerimeter=0;endArrow=none;endFill=0;strokeWidth=2;" edge="1" parent="1" source="Zt0NYIdcGdnUJ9LrQltJ-21" target="Zt0NYIdcGdnUJ9LrQltJ-19">
          <mxGeometry relative="1" as="geometry">
            <Array as="points">
              <mxPoint x="1408" y="-1711" />
              <mxPoint x="1513" y="-1711" />
            </Array>
          </mxGeometry>
        </mxCell>
        <mxCell id="CqHk4jJskdGlvBJO3M9F-22" style="edgeStyle=orthogonalEdgeStyle;rounded=0;orthogonalLoop=1;jettySize=auto;html=1;exitX=0;exitY=0.5;exitDx=0;exitDy=0;entryX=0.144;entryY=0.981;entryDx=0;entryDy=0;entryPerimeter=0;endArrow=none;endFill=0;strokeWidth=2;" edge="1" parent="1" source="Zt0NYIdcGdnUJ9LrQltJ-34" target="Zt0NYIdcGdnUJ9LrQltJ-18">
          <mxGeometry relative="1" as="geometry">
            <Array as="points">
              <mxPoint x="1280" y="-1526" />
              <mxPoint x="1280" y="-1861" />
              <mxPoint x="1514" y="-1861" />
            </Array>
          </mxGeometry>
        </mxCell>
        <mxCell id="CqHk4jJskdGlvBJO3M9F-27" style="edgeStyle=orthogonalEdgeStyle;rounded=0;orthogonalLoop=1;jettySize=auto;html=1;exitX=0.75;exitY=0;exitDx=0;exitDy=0;entryX=0.5;entryY=0;entryDx=0;entryDy=0;endArrow=none;endFill=0;strokeWidth=2;" edge="1" parent="1" source="Zt0NYIdcGdnUJ9LrQltJ-18" target="Zt0NYIdcGdnUJ9LrQltJ-18">
          <mxGeometry relative="1" as="geometry">
            <Array as="points">
              <mxPoint x="1618" y="-2011" />
              <mxPoint x="1575" y="-2011" />
            </Array>
          </mxGeometry>
        </mxCell>
        <mxCell id="CqHk4jJskdGlvBJO3M9F-28" style="edgeStyle=orthogonalEdgeStyle;rounded=0;orthogonalLoop=1;jettySize=auto;html=1;exitX=0.5;exitY=1;exitDx=0;exitDy=0;strokeColor=#A60000;strokeWidth=3;endArrow=none;endFill=0;dashed=1;entryX=1;entryY=0.5;entryDx=0;entryDy=0;" edge="1" parent="1" source="Zt0NYIdcGdnUJ9LrQltJ-41" target="bSpO7BN7ynkhuzYYFRoZ-37">
          <mxGeometry relative="1" as="geometry">
            <Array as="points">
              <mxPoint x="695" y="-1370" />
              <mxPoint x="310" y="-1370" />
              <mxPoint x="310" y="-710" />
              <mxPoint x="1470" y="-710" />
              <mxPoint x="1470" y="18" />
            </Array>
            <mxPoint x="1450" y="10" as="targetPoint" />
          </mxGeometry>
        </mxCell>
        <mxCell id="CqHk4jJskdGlvBJO3M9F-34" style="edgeStyle=orthogonalEdgeStyle;rounded=0;orthogonalLoop=1;jettySize=auto;html=1;exitX=0.5;exitY=1;exitDx=0;exitDy=0;entryX=0.206;entryY=-0.02;entryDx=0;entryDy=0;entryPerimeter=0;strokeWidth=3;endArrow=none;endFill=0;" edge="1" parent="1" source="bSpO7BN7ynkhuzYYFRoZ-52" target="Zt0NYIdcGdnUJ9LrQltJ-59">
          <mxGeometry relative="1" as="geometry" />
        </mxCell>
        <mxCell id="CqHk4jJskdGlvBJO3M9F-35" style="edgeStyle=orthogonalEdgeStyle;rounded=0;orthogonalLoop=1;jettySize=auto;html=1;exitX=0.5;exitY=1;exitDx=0;exitDy=0;entryX=0.744;entryY=0.018;entryDx=0;entryDy=0;entryPerimeter=0;strokeWidth=3;endArrow=none;endFill=0;" edge="1" parent="1" source="Zt0NYIdcGdnUJ9LrQltJ-5" target="Zt0NYIdcGdnUJ9LrQltJ-59">
          <mxGeometry relative="1" as="geometry" />
        </mxCell>
        <mxCell id="CqHk4jJskdGlvBJO3M9F-36" value="" style="endArrow=none;dashed=1;html=1;dashPattern=8 8;strokeWidth=3;rounded=0;exitX=0.5;exitY=0.959;exitDx=0;exitDy=0;exitPerimeter=0;strokeColor=#3333FF;" edge="1" parent="1" source="IbwBxVlLwrbjepFTJG9--2" target="bSpO7BN7ynkhuzYYFRoZ-26">
          <mxGeometry width="50" height="50" relative="1" as="geometry">
            <mxPoint x="1054" y="-199" as="sourcePoint" />
            <mxPoint x="1144" y="-289" as="targetPoint" />
          </mxGeometry>
        </mxCell>
        <mxCell id="CqHk4jJskdGlvBJO3M9F-58" value="&lt;font color=&quot;#3333ff&quot; style=&quot;font-size: 35px;&quot;&gt;N6&lt;/font&gt;" style="edgeLabel;html=1;align=center;verticalAlign=middle;resizable=0;points=[];labelBackgroundColor=none;fontSize=35;" vertex="1" connectable="0" parent="1">
          <mxGeometry x="-148.00000000000006" y="167.99997333334522" as="geometry">
            <mxPoint y="-1" as="offset" />
          </mxGeometry>
        </mxCell>
        <mxCell id="CqHk4jJskdGlvBJO3M9F-59" style="edgeStyle=orthogonalEdgeStyle;rounded=0;orthogonalLoop=1;jettySize=auto;html=1;entryX=0;entryY=0.5;entryDx=0;entryDy=0;strokeWidth=3;strokeColor=#3333FF;endArrow=none;endFill=0;dashed=1;dashPattern=8 8;" edge="1" parent="1" target="bSpO7BN7ynkhuzYYFRoZ-29">
          <mxGeometry relative="1" as="geometry">
            <mxPoint x="-120" y="63" as="sourcePoint" />
            <Array as="points">
              <mxPoint x="860" y="63" />
              <mxPoint x="860" y="31" />
            </Array>
          </mxGeometry>
        </mxCell>
        <mxCell id="CqHk4jJskdGlvBJO3M9F-61" style="edgeStyle=orthogonalEdgeStyle;rounded=0;orthogonalLoop=1;jettySize=auto;html=1;exitX=1;exitY=0.5;exitDx=0;exitDy=0;endArrow=none;endFill=0;strokeWidth=3;dashed=1;dashPattern=8 8;strokeColor=#3333FF;entryX=0;entryY=0.75;entryDx=0;entryDy=0;" edge="1" parent="1" source="bSpO7BN7ynkhuzYYFRoZ-63" target="bSpO7BN7ynkhuzYYFRoZ-27">
          <mxGeometry relative="1" as="geometry">
            <mxPoint x="560" y="-275" as="targetPoint" />
            <Array as="points">
              <mxPoint x="610" y="-442" />
              <mxPoint x="610" y="-209" />
            </Array>
          </mxGeometry>
        </mxCell>
        <mxCell id="CqHk4jJskdGlvBJO3M9F-65" value="&lt;font color=&quot;#3333ff&quot; style=&quot;font-size: 35px;&quot;&gt;N4&lt;/font&gt;" style="text;html=1;align=center;verticalAlign=middle;whiteSpace=wrap;rounded=0;spacing=0;spacingTop=3;fontSize=35;" vertex="1" parent="1">
          <mxGeometry x="750" y="-88" width="60" height="28" as="geometry" />
        </mxCell>
        <mxCell id="CqHk4jJskdGlvBJO3M9F-66" value="&lt;font color=&quot;#3333ff&quot; style=&quot;font-size: 35px;&quot;&gt;N11&lt;/font&gt;" style="text;html=1;align=center;verticalAlign=middle;whiteSpace=wrap;rounded=0;spacing=0;spacingTop=3;fontSize=35;" vertex="1" parent="1">
          <mxGeometry x="757" y="26" width="60" height="28" as="geometry" />
        </mxCell>
        <mxCell id="CqHk4jJskdGlvBJO3M9F-68" style="edgeStyle=orthogonalEdgeStyle;rounded=0;orthogonalLoop=1;jettySize=auto;html=1;exitX=0.5;exitY=1;exitDx=0;exitDy=0;endArrow=classic;endFill=1;strokeWidth=3;strokeColor=#A60000;entryX=0.236;entryY=0.003;entryDx=0;entryDy=0;entryPerimeter=0;endSize=9;startSize=9;" edge="1" parent="1" source="bSpO7BN7ynkhuzYYFRoZ-49" target="bSpO7BN7ynkhuzYYFRoZ-1">
          <mxGeometry relative="1" as="geometry">
            <mxPoint x="160" y="390" as="targetPoint" />
            <Array as="points">
              <mxPoint x="-135" y="-1000" />
              <mxPoint x="160" y="-1000" />
              <mxPoint x="160" y="390" />
            </Array>
          </mxGeometry>
        </mxCell>
        <mxCell id="CqHk4jJskdGlvBJO3M9F-69" value="&lt;font color=&quot;#3333ff&quot; style=&quot;font-size: 35px;&quot;&gt;N2&lt;/font&gt;" style="text;html=1;align=center;verticalAlign=middle;whiteSpace=wrap;rounded=0;spacing=0;spacingTop=3;fontSize=35;" vertex="1" parent="1">
          <mxGeometry x="750" y="-198" width="60" height="28" as="geometry" />
        </mxCell>
        <mxCell id="CqHk4jJskdGlvBJO3M9F-70" value="&lt;font color=&quot;#3333ff&quot; style=&quot;font-size: 35px;&quot;&gt;N1&lt;/font&gt;" style="text;html=1;align=center;verticalAlign=middle;whiteSpace=wrap;rounded=0;spacing=0;spacingTop=3;fontSize=35;" vertex="1" parent="1">
          <mxGeometry x="750" y="-286" width="60" height="28" as="geometry" />
        </mxCell>
        <mxCell id="CqHk4jJskdGlvBJO3M9F-73" value="&lt;font style=&quot;font-size: 43px;&quot;&gt;App&lt;/font&gt;" style="rounded=0;whiteSpace=wrap;html=1;verticalAlign=middle;spacingTop=3;fontSize=43;strokeWidth=2;" vertex="1" parent="1">
          <mxGeometry x="-215" y="-759" width="100" height="60" as="geometry" />
        </mxCell>
        <mxCell id="CqHk4jJskdGlvBJO3M9F-77" style="edgeStyle=orthogonalEdgeStyle;rounded=0;orthogonalLoop=1;jettySize=auto;html=1;entryX=0;entryY=0.5;entryDx=0;entryDy=0;endArrow=classic;endFill=1;strokeWidth=3;strokeColor=#A60000;exitX=0;exitY=0.5;exitDx=0;exitDy=0;endSize=9;startSize=9;" edge="1" parent="1" source="Zt0NYIdcGdnUJ9LrQltJ-15" target="bSpO7BN7ynkhuzYYFRoZ-19">
          <mxGeometry relative="1" as="geometry">
            <Array as="points">
              <mxPoint x="330" y="-1761" />
              <mxPoint x="330" y="-533" />
            </Array>
          </mxGeometry>
        </mxCell>
        <mxCell id="CqHk4jJskdGlvBJO3M9F-79" style="edgeStyle=orthogonalEdgeStyle;rounded=0;orthogonalLoop=1;jettySize=auto;html=1;exitX=0;exitY=0.5;exitDx=0;exitDy=0;entryX=0;entryY=0.5;entryDx=0;entryDy=0;endArrow=classic;endFill=1;strokeWidth=3;strokeColor=#A60000;endSize=9;startSize=9;" edge="1" parent="1" source="Zt0NYIdcGdnUJ9LrQltJ-10" target="bSpO7BN7ynkhuzYYFRoZ-10">
          <mxGeometry relative="1" as="geometry">
            <Array as="points">
              <mxPoint x="240" y="-1861" />
              <mxPoint x="240" y="-837" />
            </Array>
          </mxGeometry>
        </mxCell>
        <mxCell id="bSpO7BN7ynkhuzYYFRoZ-53" value="&lt;font style=&quot;font-size: 46px;&quot;&gt;&lt;b&gt;Network Slice Management&lt;/b&gt;&lt;font style=&quot;font-size: 46px;&quot;&gt;&lt;b&gt;&lt;br&gt;&lt;/b&gt;&lt;/font&gt;&lt;/font&gt;" style="text;html=1;align=center;verticalAlign=top;whiteSpace=wrap;rounded=0;spacingTop=5;" vertex="1" parent="1">
          <mxGeometry x="350" y="-2061" width="690" height="60" as="geometry" />
        </mxCell>
        <mxCell id="Zt0NYIdcGdnUJ9LrQltJ-10" value="&lt;font style=&quot;font-size: 43px;&quot;&gt;NSMF&lt;/font&gt;" style="rounded=0;whiteSpace=wrap;html=1;verticalAlign=middle;spacingTop=3;container=0;fontSize=43;strokeWidth=2;" vertex="1" parent="1">
          <mxGeometry x="445" y="-1899" width="500" height="77" as="geometry" />
        </mxCell>
        <mxCell id="Zt0NYIdcGdnUJ9LrQltJ-15" value="&lt;font style=&quot;font-size: 43px;&quot;&gt;NSSMF&lt;/font&gt;" style="rounded=0;whiteSpace=wrap;html=1;verticalAlign=middle;spacingTop=3;container=0;fontSize=43;strokeWidth=2;" vertex="1" parent="1">
          <mxGeometry x="445" y="-1799" width="500" height="77" as="geometry" />
        </mxCell>
        <mxCell id="Zt0NYIdcGdnUJ9LrQltJ-16" value="&lt;font style=&quot;font-size: 43px;&quot;&gt;NFV SECURITY MGMT&lt;br style=&quot;font-size: 43px;&quot;&gt;&lt;/font&gt;" style="rounded=0;whiteSpace=wrap;html=1;verticalAlign=middle;spacingTop=3;container=0;fontSize=43;strokeWidth=2;" vertex="1" parent="1">
          <mxGeometry x="445" y="-1699" width="500" height="77" as="geometry" />
        </mxCell>
        <mxCell id="Zt0NYIdcGdnUJ9LrQltJ-41" value="&lt;font style=&quot;font-size: 43px;&quot;&gt;MDAF&lt;/font&gt;" style="rounded=0;whiteSpace=wrap;html=1;verticalAlign=middle;spacingTop=3;container=0;fontSize=43;strokeWidth=2;" vertex="1" parent="1">
          <mxGeometry x="600" y="-1515" width="190" height="130" as="geometry" />
        </mxCell>
        <mxCell id="Zt0NYIdcGdnUJ9LrQltJ-17" value="" style="rounded=0;whiteSpace=wrap;html=1;verticalAlign=middle;spacingTop=3;container=0;strokeWidth=2;" vertex="1" parent="1">
          <mxGeometry x="810" y="-1515" width="190" height="130" as="geometry" />
        </mxCell>
        <mxCell id="Zt0NYIdcGdnUJ9LrQltJ-39" value="" style="rounded=0;whiteSpace=wrap;html=1;verticalAlign=middle;spacingTop=3;container=0;strokeWidth=2;" vertex="1" parent="1">
          <mxGeometry x="820" y="-1505" width="190" height="130" as="geometry" />
        </mxCell>
        <mxCell id="Zt0NYIdcGdnUJ9LrQltJ-40" value="&lt;font style=&quot;font-size: 43px;&quot;&gt;NFMF&lt;br style=&quot;font-size: 43px;&quot;&gt;&lt;/font&gt;" style="rounded=0;whiteSpace=wrap;html=1;verticalAlign=middle;spacingTop=3;container=0;fontSize=43;strokeWidth=2;" vertex="1" parent="1">
          <mxGeometry x="830" y="-1495" width="190" height="130" as="geometry" />
        </mxCell>
        <mxCell id="Zt0NYIdcGdnUJ9LrQltJ-42" value="&lt;font style=&quot;font-size: 43px;&quot;&gt;EGMF&lt;/font&gt;" style="rounded=0;whiteSpace=wrap;html=1;verticalAlign=middle;spacingTop=3;container=0;fontSize=43;strokeWidth=2;" vertex="1" parent="1">
          <mxGeometry x="380" y="-1515" width="190" height="130" as="geometry" />
        </mxCell>
        <mxCell id="Zt0NYIdcGdnUJ9LrQltJ-71" value="&lt;font style=&quot;font-size: 43px;&quot;&gt;Non RT RIC&lt;br style=&quot;font-size: 43px;&quot;&gt;&lt;/font&gt;" style="rounded=0;whiteSpace=wrap;html=1;verticalAlign=middle;spacingTop=3;container=0;fontSize=43;strokeWidth=2;" vertex="1" parent="1">
          <mxGeometry x="445" y="-1601" width="500" height="77" as="geometry" />
        </mxCell>
        <mxCell id="Zt0NYIdcGdnUJ9LrQltJ-94" style="edgeStyle=orthogonalEdgeStyle;rounded=0;orthogonalLoop=1;jettySize=auto;html=1;exitX=0.5;exitY=1;exitDx=0;exitDy=0;" edge="1" parent="1" source="Zt0NYIdcGdnUJ9LrQltJ-10" target="Zt0NYIdcGdnUJ9LrQltJ-10">
          <mxGeometry relative="1" as="geometry" />
        </mxCell>
        <mxCell id="CqHk4jJskdGlvBJO3M9F-89" value="&lt;font style=&quot;font-size: 43px;&quot;&gt;CSMF&lt;/font&gt;" style="rounded=0;whiteSpace=wrap;html=1;verticalAlign=middle;spacingTop=3;container=0;fontSize=43;strokeWidth=2;" vertex="1" parent="1">
          <mxGeometry x="445" y="-1998" width="500" height="77" as="geometry" />
        </mxCell>
        <mxCell id="CqHk4jJskdGlvBJO3M9F-96" style="edgeStyle=orthogonalEdgeStyle;rounded=0;orthogonalLoop=1;jettySize=auto;html=1;exitX=0.5;exitY=1;exitDx=0;exitDy=0;entryX=0.91;entryY=0;entryDx=0;entryDy=0;entryPerimeter=0;fillColor=#d5e8d4;strokeColor=#009900;strokeWidth=3;endSize=9;startSize=9;" edge="1" parent="1" target="bSpO7BN7ynkhuzYYFRoZ-1">
          <mxGeometry relative="1" as="geometry">
            <mxPoint x="1800" y="316" as="sourcePoint" />
          </mxGeometry>
        </mxCell>
        <mxCell id="CqHk4jJskdGlvBJO3M9F-98" style="edgeStyle=orthogonalEdgeStyle;rounded=0;orthogonalLoop=1;jettySize=auto;html=1;exitX=0;exitY=0.5;exitDx=0;exitDy=0;entryX=0.999;entryY=0.331;entryDx=0;entryDy=0;entryPerimeter=0;endArrow=none;endFill=0;strokeWidth=5;strokeColor=#A60000;endSize=9;startArrow=classic;startFill=1;startSize=9;" edge="1" parent="1" source="bSpO7BN7ynkhuzYYFRoZ-52" target="bSpO7BN7ynkhuzYYFRoZ-49">
          <mxGeometry relative="1" as="geometry" />
        </mxCell>
        <mxCell id="CqHk4jJskdGlvBJO3M9F-99" value="&lt;font color=&quot;#009900&quot; style=&quot;font-size: 47px;&quot;&gt;&lt;b&gt;Physical Infrastructure Layer&lt;/b&gt;&lt;/font&gt;" style="text;html=1;align=center;verticalAlign=middle;whiteSpace=wrap;rounded=0;" vertex="1" parent="1">
          <mxGeometry x="436" y="419" width="686" height="50" as="geometry" />
        </mxCell>
        <mxCell id="CqHk4jJskdGlvBJO3M9F-100" value="&lt;font color=&quot;#3333ff&quot; style=&quot;font-size: 47px;&quot;&gt;&lt;b&gt;Network Service Layer&lt;/b&gt;&lt;/font&gt;" style="text;html=1;align=center;verticalAlign=middle;whiteSpace=wrap;rounded=0;" vertex="1" parent="1">
          <mxGeometry x="250" y="-1039" width="1044" height="97" as="geometry" />
        </mxCell>
        <mxCell id="CqHk4jJskdGlvBJO3M9F-102" value="&lt;font color=&quot;#a60000&quot; style=&quot;font-size: 47px;&quot;&gt;&lt;b&gt;Management &amp;amp; Orchestration Layer&lt;/b&gt;&lt;/font&gt;" style="text;html=1;align=center;verticalAlign=middle;whiteSpace=wrap;rounded=0;" vertex="1" parent="1">
          <mxGeometry x="255" y="-2166" width="1044" height="50" as="geometry" />
        </mxCell>
        <mxCell id="Zt0NYIdcGdnUJ9LrQltJ-54" style="edgeStyle=orthogonalEdgeStyle;rounded=0;orthogonalLoop=1;jettySize=auto;html=1;exitX=-0.006;exitY=0.16;exitDx=0;exitDy=0;endArrow=none;endFill=0;fillColor=#a20025;strokeColor=#A60000;strokeWidth=3;exitPerimeter=0;entryX=1;entryY=0.5;entryDx=0;entryDy=0;startArrow=classic;startFill=1;endSize=9;startSize=9;" edge="1" parent="1" source="Zt0NYIdcGdnUJ9LrQltJ-18" target="bSpO7BN7ynkhuzYYFRoZ-49">
          <mxGeometry relative="1" as="geometry">
            <Array as="points">
              <mxPoint x="1450" y="-1961" />
              <mxPoint x="1450" y="-2081" />
              <mxPoint x="220" y="-2081" />
              <mxPoint x="220" y="-1608" />
            </Array>
            <mxPoint x="230" y="-1561" as="targetPoint" />
          </mxGeometry>
        </mxCell>
        <mxCell id="IbwBxVlLwrbjepFTJG9--3" value="" style="endArrow=none;dashed=1;html=1;dashPattern=8 8;strokeWidth=3;rounded=0;exitX=0.5;exitY=0.959;exitDx=0;exitDy=0;exitPerimeter=0;strokeColor=#3333FF;" edge="1" parent="1" source="bSpO7BN7ynkhuzYYFRoZ-25" target="IbwBxVlLwrbjepFTJG9--2">
          <mxGeometry width="50" height="50" relative="1" as="geometry">
            <mxPoint x="1154" y="311" as="sourcePoint" />
            <mxPoint x="1154" y="-281" as="targetPoint" />
          </mxGeometry>
        </mxCell>
        <mxCell id="IbwBxVlLwrbjepFTJG9--2" value="&lt;font size=&quot;1&quot;&gt;&lt;b style=&quot;font-size: 40px;&quot;&gt;SBA&lt;/b&gt;&lt;/font&gt;" style="rounded=0;whiteSpace=wrap;html=1;container=0;fillColor=#B3B3B3;textDirection=vertical-rl;spacing=0;spacingTop=0;spacingRight=10;strokeWidth=2;" vertex="1" parent="1">
          <mxGeometry x="1134" y="-286" width="40" height="600" as="geometry" />
        </mxCell>
        <mxCell id="UC2NN2C5TZ_ykxZ_eDT--18" value="" style="rounded=0;whiteSpace=wrap;html=1;strokeWidth=2;" vertex="1" parent="1">
          <mxGeometry x="-430" y="1098" width="2440" height="390" as="geometry" />
        </mxCell>
        <mxCell id="UC2NN2C5TZ_ykxZ_eDT--19" value="" style="rounded=0;whiteSpace=wrap;html=1;fillColor=#dae8fc;strokeColor=#6c8ebf;strokeWidth=4;" vertex="1" parent="1">
          <mxGeometry x="-385" y="1253" width="160" height="80" as="geometry" />
        </mxCell>
        <mxCell id="UC2NN2C5TZ_ykxZ_eDT--20" value="" style="rounded=0;whiteSpace=wrap;html=1;fillColor=#d5e8d4;strokeColor=#82b366;strokeWidth=4;" vertex="1" parent="1">
          <mxGeometry x="-390" y="1368" width="160" height="80" as="geometry" />
        </mxCell>
        <mxCell id="UC2NN2C5TZ_ykxZ_eDT--21" value="" style="rounded=0;whiteSpace=wrap;html=1;fillColor=#f8cecc;strokeColor=#b85450;strokeWidth=4;" vertex="1" parent="1">
          <mxGeometry x="-385" y="1138" width="160" height="80" as="geometry" />
        </mxCell>
        <mxCell id="UC2NN2C5TZ_ykxZ_eDT--22" value="&lt;div align=&quot;left&quot; style=&quot;font-size: 50px;&quot;&gt;&lt;font color=&quot;#009900&quot; style=&quot;font-size: 50px;&quot;&gt;Physical Infrastructure element&lt;/font&gt;&lt;/div&gt;" style="text;html=1;align=left;verticalAlign=middle;whiteSpace=wrap;rounded=0;fontStyle=1;fontSize=50;spacingTop=5;" vertex="1" parent="1">
          <mxGeometry x="-205" y="1378" width="625" height="70" as="geometry" />
        </mxCell>
        <mxCell id="UC2NN2C5TZ_ykxZ_eDT--23" value="&lt;div align=&quot;left&quot; style=&quot;font-size: 50px;&quot;&gt;&lt;font color=&quot;#3333ff&quot; style=&quot;font-size: 50px;&quot;&gt;Network Service element&lt;br style=&quot;font-size: 50px;&quot;&gt;&lt;/font&gt;&lt;/div&gt;" style="text;html=1;align=left;verticalAlign=middle;whiteSpace=wrap;rounded=0;fontStyle=1;fontSize=50;" vertex="1" parent="1">
          <mxGeometry x="-205" y="1266" width="625" height="70" as="geometry" />
        </mxCell>
        <mxCell id="UC2NN2C5TZ_ykxZ_eDT--24" value="&lt;font color=&quot;#a60000&quot; style=&quot;font-size: 50px;&quot;&gt;&lt;b style=&quot;font-size: 50px;&quot;&gt;Management &amp;amp; Orchestration element&lt;/b&gt;&lt;/font&gt;" style="text;html=1;align=left;verticalAlign=middle;whiteSpace=wrap;rounded=0;fontSize=50;spacingTop=5;" vertex="1" parent="1">
          <mxGeometry x="-205" y="1143" width="615" height="70" as="geometry" />
        </mxCell>
        <mxCell id="UC2NN2C5TZ_ykxZ_eDT--25" value="" style="endArrow=classic;html=1;rounded=0;strokeWidth=6;fillColor=#f8cecc;strokeColor=#b85450;endSize=9;startSize=9;" edge="1" parent="1">
          <mxGeometry width="50" height="50" relative="1" as="geometry">
            <mxPoint x="480" y="1176.57" as="sourcePoint" />
            <mxPoint x="620" y="1176.57" as="targetPoint" />
          </mxGeometry>
        </mxCell>
        <mxCell id="UC2NN2C5TZ_ykxZ_eDT--26" value="&lt;font style=&quot;font-size: 50px;&quot;&gt;&lt;b style=&quot;font-size: 50px;&quot;&gt;&quot;Manages&quot;&lt;br style=&quot;font-size: 50px;&quot;&gt;&lt;/b&gt;&lt;/font&gt;" style="text;html=1;align=left;verticalAlign=middle;whiteSpace=wrap;rounded=0;fontSize=50;" vertex="1" parent="1">
          <mxGeometry x="639" y="1153" width="535" height="50" as="geometry" />
        </mxCell>
        <mxCell id="UC2NN2C5TZ_ykxZ_eDT--27" value="" style="endArrow=none;html=1;rounded=0;strokeWidth=6;fillColor=#f8cecc;strokeColor=#b85450;endFill=0;dashed=1;endSize=9;startSize=9;" edge="1" parent="1">
          <mxGeometry width="50" height="50" relative="1" as="geometry">
            <mxPoint x="480" y="1291.57" as="sourcePoint" />
            <mxPoint x="620" y="1291.57" as="targetPoint" />
          </mxGeometry>
        </mxCell>
        <mxCell id="UC2NN2C5TZ_ykxZ_eDT--28" value="&lt;div style=&quot;font-size: 50px;&quot;&gt;&lt;font style=&quot;font-size: 50px;&quot;&gt;&lt;b style=&quot;font-size: 50px;&quot;&gt;Data exchange for&amp;nbsp;&lt;/b&gt;&lt;/font&gt;&lt;/div&gt;&lt;div style=&quot;font-size: 50px;&quot;&gt;&lt;font style=&quot;font-size: 50px;&quot;&gt;&lt;b style=&quot;font-size: 50px;&quot;&gt;management purposes&lt;br style=&quot;font-size: 50px;&quot;&gt;&lt;/b&gt;&lt;/font&gt;&lt;/div&gt;" style="text;html=1;align=left;verticalAlign=middle;whiteSpace=wrap;rounded=0;fontSize=50;" vertex="1" parent="1">
          <mxGeometry x="639" y="1268" width="581" height="50" as="geometry" />
        </mxCell>
        <mxCell id="UC2NN2C5TZ_ykxZ_eDT--29" value="" style="endArrow=classic;html=1;rounded=0;strokeWidth=6;fillColor=#d5e8d4;strokeColor=#82b366;endSize=9;startSize=9;" edge="1" parent="1">
          <mxGeometry width="50" height="50" relative="1" as="geometry">
            <mxPoint x="480" y="1406.57" as="sourcePoint" />
            <mxPoint x="620" y="1406.57" as="targetPoint" />
          </mxGeometry>
        </mxCell>
        <mxCell id="I8OBwHhBF3oGMgnZNRx6-1" value="" style="edgeStyle=orthogonalEdgeStyle;rounded=0;orthogonalLoop=1;jettySize=auto;html=1;" edge="1" parent="1" source="UC2NN2C5TZ_ykxZ_eDT--30" target="UC2NN2C5TZ_ykxZ_eDT--28">
          <mxGeometry relative="1" as="geometry" />
        </mxCell>
        <mxCell id="UC2NN2C5TZ_ykxZ_eDT--30" value="&lt;font style=&quot;font-size: 50px;&quot;&gt;&lt;b style=&quot;font-size: 50px;&quot;&gt;&quot;Implemented by&quot;&lt;br style=&quot;font-size: 50px;&quot;&gt;&lt;/b&gt;&lt;/font&gt;" style="text;html=1;align=left;verticalAlign=middle;whiteSpace=wrap;rounded=0;fontSize=50;" vertex="1" parent="1">
          <mxGeometry x="639" y="1383" width="535" height="50" as="geometry" />
        </mxCell>
        <mxCell id="UC2NN2C5TZ_ykxZ_eDT--31" value="" style="endArrow=none;html=1;rounded=0;strokeWidth=6;fillColor=#f8cecc;strokeColor=#3333FF;endFill=0;endSize=9;startSize=9;" edge="1" parent="1">
          <mxGeometry width="50" height="50" relative="1" as="geometry">
            <mxPoint x="1225" y="1206.57" as="sourcePoint" />
            <mxPoint x="1365" y="1206.57" as="targetPoint" />
          </mxGeometry>
        </mxCell>
        <mxCell id="UC2NN2C5TZ_ykxZ_eDT--32" value="&lt;div style=&quot;font-size: 50px;&quot;&gt;&lt;font style=&quot;font-size: 50px;&quot;&gt;&lt;b style=&quot;font-size: 50px;&quot;&gt;Data plane communication&lt;br style=&quot;font-size: 50px;&quot;&gt;&lt;/b&gt;&lt;/font&gt;&lt;/div&gt;" style="text;html=1;align=left;verticalAlign=middle;whiteSpace=wrap;rounded=0;fontSize=50;" vertex="1" parent="1">
          <mxGeometry x="1385" y="1183" width="625" height="50" as="geometry" />
        </mxCell>
        <mxCell id="UC2NN2C5TZ_ykxZ_eDT--33" value="" style="endArrow=none;html=1;rounded=0;strokeWidth=6;fillColor=#f8cecc;strokeColor=#3333FF;endFill=0;dashed=1;endSize=9;startSize=9;" edge="1" parent="1">
          <mxGeometry width="50" height="50" relative="1" as="geometry">
            <mxPoint x="1225" y="1363.57" as="sourcePoint" />
            <mxPoint x="1365" y="1363.57" as="targetPoint" />
          </mxGeometry>
        </mxCell>
        <mxCell id="UC2NN2C5TZ_ykxZ_eDT--34" value="&lt;div style=&quot;font-size: 50px;&quot;&gt;&lt;font style=&quot;font-size: 50px;&quot;&gt;&lt;b style=&quot;font-size: 50px;&quot;&gt;Control plane communication&lt;br style=&quot;font-size: 50px;&quot;&gt;&lt;/b&gt;&lt;/font&gt;&lt;/div&gt;" style="text;html=1;align=left;verticalAlign=middle;whiteSpace=wrap;rounded=0;fontSize=50;" vertex="1" parent="1">
          <mxGeometry x="1385" y="1340" width="612" height="50" as="geometry" />
        </mxCell>
        <mxCell id="I8OBwHhBF3oGMgnZNRx6-6" style="edgeStyle=orthogonalEdgeStyle;rounded=0;orthogonalLoop=1;jettySize=auto;html=1;exitX=0;exitY=0.5;exitDx=0;exitDy=0;entryX=1;entryY=0.25;entryDx=0;entryDy=0;strokeWidth=3;strokeColor=#3333FF;endArrow=none;endFill=0;dashed=1;dashPattern=8 8;" edge="1" parent="1" source="bSpO7BN7ynkhuzYYFRoZ-28" target="bSpO7BN7ynkhuzYYFRoZ-5">
          <mxGeometry relative="1" as="geometry">
            <Array as="points">
              <mxPoint x="610" y="-99" />
              <mxPoint x="610" y="14" />
            </Array>
          </mxGeometry>
        </mxCell>
      </root>
    </mxGraphModel>
  </diagram>
</mxfile>
